<svg width="731" height="503" viewBox="0 0 731 503" fill="none" xmlns="http://www.w3.org/2000/svg">
<rect width="731" height="503" fill="#F5F5F5"/>
<rect width="731" height="503" fill="white"/>
<line x1="25.265" y1="133.576" x2="97.265" y2="178.576" stroke="#BFBFBF"/>
<line x1="25.1923" y1="133.538" x2="133.192" y2="178.538" stroke="#BFBFBF"/>
<line x1="61.2692" y1="132.579" x2="133.269" y2="178.579" stroke="#BFBFBF"/>
<line x1="97.3904" y1="133.688" x2="133.39" y2="178.688" stroke="#BFBFBF"/>
<line x1="133.5" y1="133" x2="133.5" y2="179" stroke="#BFBFBF"/>
<line x1="133.23" y1="132.556" x2="222.23" y2="178.556" stroke="#BFBFBF"/>
<line x1="222.5" y1="134" x2="222.5" y2="179" stroke="#BFBFBF"/>
<line x1="258.394" y1="133.308" x2="222.394" y2="179.308" stroke="#BFBFBF"/>
<line x1="294.269" y1="133.421" x2="222.269" y2="179.421" stroke="#BFBFBF"/>
<line x1="330.196" y1="133.46" x2="222.196" y2="179.46" stroke="#BFBFBF"/>
<line x1="330.269" y1="133.421" x2="258.269" y2="179.421" stroke="#BFBFBF"/>
<line x1="294.394" y1="133.308" x2="258.394" y2="179.308" stroke="#BFBFBF"/>
<line x1="258.5" y1="133" x2="258.5" y2="179" stroke="#BFBFBF"/>
<line x1="222.394" y1="132.692" x2="258.394" y2="178.692" stroke="#BFBFBF"/>
<line x1="133.173" y1="132.531" x2="258.173" y2="178.531" stroke="#BFBFBF"/>
<line x1="95.1358" y1="132.519" x2="258.136" y2="178.519" stroke="#BFBFBF"/>
<line x1="61.1137" y1="132.513" x2="258.114" y2="178.513" stroke="#BFBFBF"/>
<line x1="25.0968" y1="132.509" x2="258.097" y2="178.509" stroke="#BFBFBF"/>
<line x1="97.1727" y1="132.531" x2="222.173" y2="178.531" stroke="#BFBFBF"/>
<line x1="61.1374" y1="132.519" x2="222.137" y2="178.519" stroke="#BFBFBF"/>
<line x1="25.1137" y1="132.513" x2="222.114" y2="178.513" stroke="#BFBFBF"/>
<line x1="222.23" y1="133.444" x2="133.23" y2="179.444" stroke="#BFBFBF"/>
<line x1="258.173" y1="133.469" x2="133.173" y2="179.469" stroke="#BFBFBF"/>
<line x1="294.137" y1="133.481" x2="133.137" y2="179.481" stroke="#BFBFBF"/>
<line x1="330.114" y1="133.487" x2="133.114" y2="179.487" stroke="#BFBFBF"/>
<line x1="61.3904" y1="133.688" x2="97.3904" y2="178.688" stroke="#BFBFBF"/>
<line x1="97.5" y1="134" x2="97.5" y2="179" stroke="#BFBFBF"/>
<line x1="133.39" y1="134.312" x2="97.3904" y2="179.312" stroke="#BFBFBF"/>
<line x1="222.173" y1="133.469" x2="97.1727" y2="179.469" stroke="#BFBFBF"/>
<line x1="258.137" y1="133.481" x2="97.1374" y2="179.481" stroke="#BFBFBF"/>
<line x1="294.114" y1="133.487" x2="97.1137" y2="179.487" stroke="#BFBFBF"/>
<line x1="330.097" y1="133.491" x2="97.0968" y2="179.491" stroke="#BFBFBF"/>
<line x1="97.3904" y1="202.688" x2="133.39" y2="247.688" stroke="#BFBFBF"/>
<line x1="248.261" y1="347.574" x2="323.261" y2="393.574" stroke="#BFBFBF"/>
<line x1="323.354" y1="418.646" x2="368.354" y2="463.646" stroke="#BFBFBF"/>
<line x1="412.361" y1="418.346" x2="368.361" y2="464.346" stroke="#BFBFBF"/>
<line x1="337.478" y1="348.146" x2="323.478" y2="394.146" stroke="#BFBFBF"/>
<line x1="393.275" y1="348.418" x2="323.275" y2="394.418" stroke="#BFBFBF"/>
<line x1="482.139" y1="348.48" x2="323.139" y2="394.48" stroke="#BFBFBF"/>
<line x1="482.275" y1="348.418" x2="412.275" y2="394.418" stroke="#BFBFBF"/>
<line x1="393.462" y1="347.809" x2="412.462" y2="393.809" stroke="#BFBFBF"/>
<line x1="337.261" y1="347.574" x2="412.261" y2="393.574" stroke="#BFBFBF"/>
<line x1="248.135" y1="347.519" x2="412.135" y2="393.519" stroke="#BFBFBF"/>
<line x1="133.5" y1="203" x2="133.5" y2="248" stroke="#BFBFBF"/>
<line x1="222.226" y1="203.446" x2="133.226" y2="248.446" stroke="#BFBFBF"/>
<line x1="258.169" y1="203.47" x2="133.169" y2="248.47" stroke="#BFBFBF"/>
<line x1="258.4" y1="203.3" x2="222.4" y2="251.3" stroke="#BFBFBF"/>
<line x1="222.5" y1="203" x2="222.5" y2="251" stroke="#BFBFBF"/>
<line x1="133.237" y1="202.56" x2="222.237" y2="250.56" stroke="#BFBFBF"/>
<line x1="97.1792" y1="202.533" x2="222.179" y2="250.533" stroke="#BFBFBF"/>
<circle cx="61" cy="121" r="13" fill="#3100A2"/>
<circle cx="97" cy="121" r="13" fill="#3100A2"/>
<circle cx="133" cy="121" r="13" fill="#3100A2"/>
<circle cx="61" cy="121" r="13" fill="#3100A2"/>
<circle cx="25" cy="121" r="13" fill="#3100A2"/>
<circle cx="97" cy="121" r="13" fill="#3100A2"/>
<circle cx="133" cy="121" r="13" fill="#3100A2"/>
<circle cx="258" cy="121" r="13" fill="#3100A2"/>
<circle cx="294" cy="121" r="13" fill="#3100A2"/>
<circle cx="330" cy="121" r="13" fill="#3100A2"/>
<circle cx="258" cy="121" r="13" fill="#3100A2"/>
<circle cx="222" cy="121" r="13" fill="#3100A2"/>
<circle cx="294" cy="121" r="13" fill="#3100A2"/>
<circle cx="330" cy="121" r="13" fill="#3100A2"/>
<circle cx="162.5" cy="121.5" r="2.5" fill="#565656"/>
<circle cx="177.5" cy="121.5" r="2.5" fill="#565656"/>
<circle cx="192.5" cy="121.5" r="2.5" fill="#565656"/>
<circle cx="192.5" cy="121.5" r="2.5" fill="#565656"/>
<circle cx="97" cy="191" r="13" fill="#3100A2"/>
<circle cx="133" cy="191" r="13" fill="#3100A2"/>
<circle cx="97" cy="191" r="13" fill="#3100A2"/>
<circle cx="133" cy="191" r="13" fill="#3100A2"/>
<circle cx="258" cy="191" r="13" fill="#3100A2"/>
<circle cx="258" cy="191" r="13" fill="#3100A2"/>
<circle cx="222" cy="191" r="13" fill="#3100A2"/>
<circle cx="162.5" cy="191.5" r="2.5" fill="#565656"/>
<circle cx="177.5" cy="191.5" r="2.5" fill="#565656"/>
<circle cx="192.5" cy="191.5" r="2.5" fill="#565656"/>
<circle cx="192.5" cy="191.5" r="2.5" fill="#565656"/>
<circle cx="133" cy="261" r="13" fill="#3100A2"/>
<circle cx="133" cy="261" r="13" fill="#3100A2"/>
<circle cx="222" cy="261" r="13" fill="#3100A2"/>
<circle cx="162.5" cy="261.5" r="2.5" fill="#565656"/>
<circle cx="177.5" cy="261.5" r="2.5" fill="#565656"/>
<circle cx="192.5" cy="261.5" r="2.5" fill="#565656"/>
<circle cx="192.5" cy="261.5" r="2.5" fill="#565656"/>
<circle cx="248" cy="336" r="13" fill="#3100A2"/>
<circle cx="248" cy="336" r="13" fill="#3100A2"/>
<circle cx="337" cy="336" r="13" fill="#3100A2"/>
<circle cx="337" cy="336" r="13" fill="#3100A2"/>
<circle cx="277.5" cy="336.5" r="2.5" fill="#565656"/>
<circle cx="292.5" cy="336.5" r="2.5" fill="#565656"/>
<circle cx="307.5" cy="336.5" r="2.5" fill="#565656"/>
<circle cx="307.5" cy="336.5" r="2.5" fill="#565656"/>
<line x1="400.265" y1="133.576" x2="472.265" y2="178.576" stroke="#BFBFBF"/>
<line x1="400.192" y1="133.538" x2="508.192" y2="178.538" stroke="#BFBFBF"/>
<line x1="436.269" y1="132.579" x2="508.269" y2="178.579" stroke="#BFBFBF"/>
<line x1="472.39" y1="133.688" x2="508.39" y2="178.688" stroke="#BFBFBF"/>
<line x1="508.5" y1="133" x2="508.5" y2="179" stroke="#BFBFBF"/>
<line x1="508.23" y1="132.556" x2="597.23" y2="178.556" stroke="#BFBFBF"/>
<line x1="597.5" y1="134" x2="597.5" y2="179" stroke="#BFBFBF"/>
<line x1="633.394" y1="133.308" x2="597.394" y2="179.308" stroke="#BFBFBF"/>
<line x1="669.269" y1="133.421" x2="597.269" y2="179.421" stroke="#BFBFBF"/>
<line x1="705.196" y1="133.46" x2="597.196" y2="179.46" stroke="#BFBFBF"/>
<line x1="705.269" y1="133.421" x2="633.269" y2="179.421" stroke="#BFBFBF"/>
<line x1="669.394" y1="133.308" x2="633.394" y2="179.308" stroke="#BFBFBF"/>
<line x1="633.5" y1="133" x2="633.5" y2="179" stroke="#BFBFBF"/>
<line x1="597.394" y1="132.692" x2="633.394" y2="178.692" stroke="#BFBFBF"/>
<line x1="508.173" y1="132.531" x2="633.173" y2="178.531" stroke="#BFBFBF"/>
<line x1="470.136" y1="132.519" x2="633.136" y2="178.519" stroke="#BFBFBF"/>
<line x1="436.114" y1="132.513" x2="633.114" y2="178.513" stroke="#BFBFBF"/>
<line x1="400.097" y1="132.509" x2="633.097" y2="178.509" stroke="#BFBFBF"/>
<line x1="472.173" y1="132.531" x2="597.173" y2="178.531" stroke="#BFBFBF"/>
<line x1="436.137" y1="132.519" x2="597.137" y2="178.519" stroke="#BFBFBF"/>
<line x1="400.114" y1="132.513" x2="597.114" y2="178.513" stroke="#BFBFBF"/>
<line x1="597.23" y1="133.444" x2="508.23" y2="179.444" stroke="#BFBFBF"/>
<line x1="633.173" y1="133.469" x2="508.173" y2="179.469" stroke="#BFBFBF"/>
<line x1="669.137" y1="133.481" x2="508.137" y2="179.481" stroke="#BFBFBF"/>
<line x1="705.114" y1="133.487" x2="508.114" y2="179.487" stroke="#BFBFBF"/>
<line x1="436.39" y1="133.688" x2="472.39" y2="178.688" stroke="#BFBFBF"/>
<line x1="472.5" y1="134" x2="472.5" y2="179" stroke="#BFBFBF"/>
<line x1="508.39" y1="134.312" x2="472.39" y2="179.312" stroke="#BFBFBF"/>
<line x1="597.173" y1="133.469" x2="472.173" y2="179.469" stroke="#BFBFBF"/>
<line x1="633.137" y1="133.481" x2="472.137" y2="179.481" stroke="#BFBFBF"/>
<line x1="669.114" y1="133.487" x2="472.114" y2="179.487" stroke="#BFBFBF"/>
<line x1="705.097" y1="133.491" x2="472.097" y2="179.491" stroke="#BFBFBF"/>
<line x1="472.39" y1="202.688" x2="508.39" y2="247.688" stroke="#BFBFBF"/>
<line x1="508.5" y1="203" x2="508.5" y2="248" stroke="#BFBFBF"/>
<line x1="597.226" y1="203.446" x2="508.226" y2="248.446" stroke="#BFBFBF"/>
<line x1="633.169" y1="203.47" x2="508.169" y2="248.47" stroke="#BFBFBF"/>
<line x1="633.4" y1="203.3" x2="597.4" y2="251.3" stroke="#BFBFBF"/>
<line x1="597.5" y1="203" x2="597.5" y2="251" stroke="#BFBFBF"/>
<line x1="508.237" y1="202.56" x2="597.237" y2="250.56" stroke="#BFBFBF"/>
<line x1="472.179" y1="202.533" x2="597.179" y2="250.533" stroke="#BFBFBF"/>
<circle cx="436" cy="121" r="13" fill="#B266FF"/>
<circle cx="472" cy="121" r="13" fill="#B266FF"/>
<circle cx="508" cy="121" r="13" fill="#B266FF"/>
<circle cx="436" cy="121" r="13" fill="#B266FF"/>
<circle cx="400" cy="121" r="13" fill="#B266FF"/>
<circle cx="472" cy="121" r="13" fill="#B266FF"/>
<circle cx="508" cy="121" r="13" fill="#B266FF"/>
<circle cx="633" cy="121" r="13" fill="#B266FF"/>
<circle cx="669" cy="121" r="13" fill="#B266FF"/>
<circle cx="705" cy="121" r="13" fill="#B266FF"/>
<circle cx="633" cy="121" r="13" fill="#B266FF"/>
<circle cx="597" cy="121" r="13" fill="#B266FF"/>
<circle cx="669" cy="121" r="13" fill="#B266FF"/>
<circle cx="705" cy="121" r="13" fill="#B266FF"/>
<circle cx="537.5" cy="121.5" r="2.5" fill="#565656"/>
<circle cx="552.5" cy="121.5" r="2.5" fill="#565656"/>
<circle cx="567.5" cy="121.5" r="2.5" fill="#565656"/>
<circle cx="567.5" cy="121.5" r="2.5" fill="#565656"/>
<circle cx="472" cy="191" r="13" fill="#B266FF"/>
<circle cx="508" cy="191" r="13" fill="#B266FF"/>
<circle cx="472" cy="191" r="13" fill="#B266FF"/>
<circle cx="508" cy="191" r="13" fill="#B266FF"/>
<circle cx="633" cy="191" r="13" fill="#B266FF"/>
<circle cx="633" cy="191" r="13" fill="#B266FF"/>
<circle cx="597" cy="191" r="13" fill="#B266FF"/>
<circle cx="537.5" cy="191.5" r="2.5" fill="#565656"/>
<circle cx="552.5" cy="191.5" r="2.5" fill="#565656"/>
<circle cx="567.5" cy="191.5" r="2.5" fill="#565656"/>
<circle cx="567.5" cy="191.5" r="2.5" fill="#565656"/>
<circle cx="508" cy="261" r="13" fill="#B266FF"/>
<circle cx="508" cy="261" r="13" fill="#B266FF"/>
<circle cx="597" cy="261" r="13" fill="#B266FF"/>
<circle cx="537.5" cy="261.5" r="2.5" fill="#565656"/>
<circle cx="552.5" cy="261.5" r="2.5" fill="#565656"/>
<circle cx="567.5" cy="261.5" r="2.5" fill="#565656"/>
<circle cx="567.5" cy="261.5" r="2.5" fill="#565656"/>
<circle cx="393" cy="336" r="13" fill="#B266FF"/>
<circle cx="393" cy="336" r="13" fill="#B266FF"/>
<circle cx="482" cy="336" r="13" fill="#B266FF"/>
<circle cx="422.5" cy="336.5" r="2.5" fill="#565656"/>
<circle cx="437.5" cy="336.5" r="2.5" fill="#565656"/>
<circle cx="452.5" cy="336.5" r="2.5" fill="#565656"/>
<circle cx="452.5" cy="336.5" r="2.5" fill="#565656"/>
<circle cx="323" cy="406" r="13" fill="#B266FF"/>
<circle cx="323" cy="406" r="13" fill="url(#paint0_linear_0_1)"/>
<circle cx="368" cy="477" r="13" fill="#565656"/>
<circle cx="412" cy="406" r="13" fill="url(#paint1_linear_0_1)"/>
<circle cx="352.5" cy="406.5" r="2.5" fill="#565656"/>
<circle cx="367.5" cy="406.5" r="2.5" fill="#565656"/>
<circle cx="382.5" cy="406.5" r="2.5" fill="#565656"/>
<circle cx="382.5" cy="406.5" r="2.5" fill="#565656"/>
<path d="M132.471 32.29V28.63H137.031C137.611 28.63 138.141 28.51 138.621 28.27C139.101 28.03 139.481 27.68 139.761 27.22C140.041 26.76 140.181 26.2 140.181 25.54C140.181 24.9 140.041 24.35 139.761 23.89C139.481 23.43 139.101 23.08 138.621 22.84C138.141 22.6 137.611 22.48 137.031 22.48H132.471V18.82H137.721C139.061 18.82 140.271 19.09 141.351 19.63C142.431 20.17 143.281 20.95 143.901 21.97C144.541 22.97 144.861 24.16 144.861 25.54C144.861 26.92 144.541 28.12 143.901 29.14C143.281 30.14 142.431 30.92 141.351 31.48C140.271 32.02 139.061 32.29 137.721 32.29H132.471ZM128.871 40V18.82H133.581V40H128.871ZM147.289 40V25.42H151.879V40H147.289ZM151.879 31.99L149.959 30.49C150.339 28.79 150.979 27.47 151.879 26.53C152.779 25.59 154.029 25.12 155.629 25.12C156.329 25.12 156.939 25.23 157.459 25.45C157.999 25.65 158.469 25.97 158.869 26.41L156.139 29.86C155.939 29.64 155.689 29.47 155.389 29.35C155.089 29.23 154.749 29.17 154.369 29.17C153.609 29.17 152.999 29.41 152.539 29.89C152.099 30.35 151.879 31.05 151.879 31.99ZM166.702 40.33C165.202 40.33 163.842 40 162.622 39.34C161.422 38.66 160.472 37.74 159.772 36.58C159.072 35.42 158.722 34.12 158.722 32.68C158.722 31.24 159.072 29.95 159.772 28.81C160.472 27.67 161.422 26.77 162.622 26.11C163.822 25.43 165.182 25.09 166.702 25.09C168.222 25.09 169.582 25.42 170.782 26.08C171.982 26.74 172.932 27.65 173.632 28.81C174.332 29.95 174.682 31.24 174.682 32.68C174.682 34.12 174.332 35.42 173.632 36.58C172.932 37.74 171.982 38.66 170.782 39.34C169.582 40 168.222 40.33 166.702 40.33ZM166.702 36.16C167.362 36.16 167.942 36.02 168.442 35.74C168.942 35.44 169.322 35.03 169.582 34.51C169.862 33.97 170.002 33.36 170.002 32.68C170.002 32 169.862 31.41 169.582 30.91C169.302 30.39 168.912 29.99 168.412 29.71C167.932 29.41 167.362 29.26 166.702 29.26C166.062 29.26 165.492 29.41 164.992 29.71C164.492 29.99 164.102 30.39 163.822 30.91C163.542 31.43 163.402 32.03 163.402 32.71C163.402 33.37 163.542 33.97 163.822 34.51C164.102 35.03 164.492 35.44 164.992 35.74C165.492 36.02 166.062 36.16 166.702 36.16ZM178.744 40V19.39H183.334V40H178.744ZM175.444 29.32V25.42H186.634V29.32H175.444ZM195.563 40.33C193.983 40.33 192.573 40.01 191.333 39.37C190.113 38.71 189.153 37.8 188.453 36.64C187.753 35.48 187.403 34.17 187.403 32.71C187.403 31.25 187.743 29.95 188.423 28.81C189.123 27.65 190.063 26.74 191.243 26.08C192.423 25.42 193.753 25.09 195.233 25.09C196.673 25.09 197.943 25.4 199.043 26.02C200.143 26.64 201.003 27.5 201.623 28.6C202.263 29.7 202.583 30.96 202.583 32.38C202.583 32.64 202.563 32.92 202.523 33.22C202.503 33.5 202.453 33.83 202.373 34.21L189.803 34.24V31.09L200.423 31.06L198.443 32.38C198.423 31.54 198.293 30.85 198.053 30.31C197.813 29.75 197.453 29.33 196.973 29.05C196.513 28.75 195.943 28.6 195.263 28.6C194.543 28.6 193.913 28.77 193.373 29.11C192.853 29.43 192.443 29.89 192.143 30.49C191.863 31.09 191.723 31.82 191.723 32.68C191.723 33.54 191.873 34.28 192.173 34.9C192.493 35.5 192.933 35.97 193.493 36.31C194.073 36.63 194.753 36.79 195.533 36.79C196.253 36.79 196.903 36.67 197.483 36.43C198.063 36.17 198.573 35.79 199.013 35.29L201.533 37.81C200.813 38.65 199.943 39.28 198.923 39.7C197.903 40.12 196.783 40.33 195.563 40.33ZM204.799 40V25.42H209.389V40H204.799ZM207.109 23.41C206.389 23.41 205.789 23.17 205.309 22.69C204.849 22.19 204.619 21.59 204.619 20.89C204.619 20.17 204.849 19.57 205.309 19.09C205.789 18.61 206.389 18.37 207.109 18.37C207.829 18.37 208.419 18.61 208.879 19.09C209.339 19.57 209.569 20.17 209.569 20.89C209.569 21.59 209.339 22.19 208.879 22.69C208.419 23.17 207.829 23.41 207.109 23.41ZM222.251 40V31.69C222.251 30.93 222.011 30.32 221.531 29.86C221.071 29.38 220.481 29.14 219.761 29.14C219.261 29.14 218.821 29.25 218.441 29.47C218.061 29.67 217.761 29.97 217.541 30.37C217.321 30.75 217.211 31.19 217.211 31.69L215.441 30.82C215.441 29.68 215.691 28.68 216.191 27.82C216.691 26.96 217.381 26.3 218.261 25.84C219.161 25.36 220.171 25.12 221.291 25.12C222.371 25.12 223.321 25.38 224.141 25.9C224.981 26.4 225.641 27.07 226.121 27.91C226.601 28.75 226.841 29.67 226.841 30.67V40H222.251ZM212.621 40V25.42H217.211V40H212.621ZM69.0223 78V63.42H73.6123V78H69.0223ZM73.6123 69.99L71.6923 68.49C72.0723 66.79 72.7123 65.47 73.6123 64.53C74.5123 63.59 75.7623 63.12 77.3623 63.12C78.0623 63.12 78.6723 63.23 79.1923 63.45C79.7323 63.65 80.2023 63.97 80.6023 64.41L77.8723 67.86C77.6723 67.64 77.4223 67.47 77.1223 67.35C76.8223 67.23 76.4823 67.17 76.1023 67.17C75.3423 67.17 74.7323 67.41 74.2723 67.89C73.8323 68.35 73.6123 69.05 73.6123 69.99ZM88.6149 78.33C87.0349 78.33 85.6249 78.01 84.3849 77.37C83.1649 76.71 82.2049 75.8 81.5049 74.64C80.8049 73.48 80.4549 72.17 80.4549 70.71C80.4549 69.25 80.7949 67.95 81.4749 66.81C82.1749 65.65 83.1149 64.74 84.2949 64.08C85.4749 63.42 86.8049 63.09 88.2849 63.09C89.7249 63.09 90.9949 63.4 92.0949 64.02C93.1949 64.64 94.0549 65.5 94.6749 66.6C95.3149 67.7 95.6349 68.96 95.6349 70.38C95.6349 70.64 95.6149 70.92 95.5749 71.22C95.5549 71.5 95.5049 71.83 95.4249 72.21L82.8549 72.24V69.09L93.4749 69.06L91.4949 70.38C91.4749 69.54 91.3449 68.85 91.1049 68.31C90.8649 67.75 90.5049 67.33 90.0249 67.05C89.5649 66.75 88.9949 66.6 88.3149 66.6C87.5949 66.6 86.9649 66.77 86.4249 67.11C85.9049 67.43 85.4949 67.89 85.1949 68.49C84.9149 69.09 84.7749 69.82 84.7749 70.68C84.7749 71.54 84.9249 72.28 85.2249 72.9C85.5449 73.5 85.9849 73.97 86.5449 74.31C87.1249 74.63 87.8049 74.79 88.5849 74.79C89.3049 74.79 89.9549 74.67 90.5349 74.43C91.1149 74.17 91.6249 73.79 92.0649 73.29L94.5849 75.81C93.8649 76.65 92.9949 77.28 91.9749 77.7C90.9549 78.12 89.8349 78.33 88.6149 78.33ZM106.25 78.3C105.27 78.3 104.37 78.11 103.55 77.73C102.73 77.35 102.06 76.83 101.54 76.17C101.02 75.49 100.72 74.72 100.64 73.86V67.71C100.72 66.85 101.02 66.07 101.54 65.37C102.06 64.67 102.73 64.12 103.55 63.72C104.37 63.32 105.27 63.12 106.25 63.12C107.63 63.12 108.85 63.45 109.91 64.11C110.99 64.77 111.83 65.67 112.43 66.81C113.05 67.95 113.36 69.25 113.36 70.71C113.36 72.17 113.05 73.47 112.43 74.61C111.83 75.75 110.99 76.65 109.91 77.31C108.85 77.97 107.63 78.3 106.25 78.3ZM105.41 74.16C106.07 74.16 106.64 74.01 107.12 73.71C107.62 73.41 108.01 73 108.29 72.48C108.57 71.96 108.71 71.37 108.71 70.71C108.71 70.03 108.57 69.43 108.29 68.91C108.01 68.39 107.62 67.99 107.12 67.71C106.64 67.41 106.08 67.26 105.44 67.26C104.8 67.26 104.23 67.41 103.73 67.71C103.25 67.99 102.87 68.39 102.59 68.91C102.31 69.43 102.17 70.03 102.17 70.71C102.17 71.37 102.3 71.96 102.56 72.48C102.84 73 103.23 73.41 103.73 73.71C104.23 74.01 104.79 74.16 105.41 74.16ZM97.8505 84.15V63.42H102.44V67.17L101.69 70.71L102.38 74.25V84.15H97.8505ZM115.692 78V63.42H120.282V78H115.692ZM120.282 69.99L118.362 68.49C118.742 66.79 119.382 65.47 120.282 64.53C121.182 63.59 122.432 63.12 124.032 63.12C124.732 63.12 125.342 63.23 125.862 63.45C126.402 63.65 126.872 63.97 127.272 64.41L124.542 67.86C124.342 67.64 124.092 67.47 123.792 67.35C123.492 67.23 123.152 67.17 122.772 67.17C122.012 67.17 121.402 67.41 120.942 67.89C120.502 68.35 120.282 69.05 120.282 69.99ZM135.285 78.33C133.705 78.33 132.295 78.01 131.055 77.37C129.835 76.71 128.875 75.8 128.175 74.64C127.475 73.48 127.125 72.17 127.125 70.71C127.125 69.25 127.465 67.95 128.145 66.81C128.845 65.65 129.785 64.74 130.965 64.08C132.145 63.42 133.475 63.09 134.955 63.09C136.395 63.09 137.665 63.4 138.765 64.02C139.865 64.64 140.725 65.5 141.345 66.6C141.985 67.7 142.305 68.96 142.305 70.38C142.305 70.64 142.285 70.92 142.245 71.22C142.225 71.5 142.175 71.83 142.095 72.21L129.525 72.24V69.09L140.145 69.06L138.165 70.38C138.145 69.54 138.015 68.85 137.775 68.31C137.535 67.75 137.175 67.33 136.695 67.05C136.235 66.75 135.665 66.6 134.985 66.6C134.265 66.6 133.635 66.77 133.095 67.11C132.575 67.43 132.165 67.89 131.865 68.49C131.585 69.09 131.445 69.82 131.445 70.68C131.445 71.54 131.595 72.28 131.895 72.9C132.215 73.5 132.655 73.97 133.215 74.31C133.795 74.63 134.475 74.79 135.255 74.79C135.975 74.79 136.625 74.67 137.205 74.43C137.785 74.17 138.295 73.79 138.735 73.29L141.255 75.81C140.535 76.65 139.665 77.28 138.645 77.7C137.625 78.12 136.505 78.33 135.285 78.33ZM149.83 78.36C148.97 78.36 148.12 78.25 147.28 78.03C146.46 77.81 145.69 77.5 144.97 77.1C144.27 76.68 143.67 76.2 143.17 75.66L145.78 73.02C146.26 73.54 146.83 73.95 147.49 74.25C148.15 74.53 148.87 74.67 149.65 74.67C150.19 74.67 150.6 74.59 150.88 74.43C151.18 74.27 151.33 74.05 151.33 73.77C151.33 73.41 151.15 73.14 150.79 72.96C150.45 72.76 150.01 72.59 149.47 72.45C148.93 72.29 148.36 72.12 147.76 71.94C147.16 71.76 146.59 71.51 146.05 71.19C145.51 70.87 145.07 70.43 144.73 69.87C144.39 69.29 144.22 68.56 144.22 67.68C144.22 66.74 144.46 65.93 144.94 65.25C145.42 64.55 146.1 64 146.98 63.6C147.86 63.2 148.89 63 150.07 63C151.31 63 152.45 63.22 153.49 63.66C154.55 64.08 155.41 64.71 156.07 65.55L153.46 68.19C153 67.65 152.48 67.27 151.9 67.05C151.34 66.83 150.79 66.72 150.25 66.72C149.73 66.72 149.34 66.8 149.08 66.96C148.82 67.1 148.69 67.31 148.69 67.59C148.69 67.89 148.86 68.13 149.2 68.31C149.54 68.49 149.98 68.65 150.52 68.79C151.06 68.93 151.63 69.1 152.23 69.3C152.83 69.5 153.4 69.77 153.94 70.11C154.48 70.45 154.92 70.91 155.26 71.49C155.6 72.05 155.77 72.79 155.77 73.71C155.77 75.13 155.23 76.26 154.15 77.1C153.09 77.94 151.65 78.36 149.83 78.36ZM165.461 78.33C163.881 78.33 162.471 78.01 161.231 77.37C160.011 76.71 159.051 75.8 158.351 74.64C157.651 73.48 157.301 72.17 157.301 70.71C157.301 69.25 157.641 67.95 158.321 66.81C159.021 65.65 159.961 64.74 161.141 64.08C162.321 63.42 163.651 63.09 165.131 63.09C166.571 63.09 167.841 63.4 168.941 64.02C170.041 64.64 170.901 65.5 171.521 66.6C172.161 67.7 172.481 68.96 172.481 70.38C172.481 70.64 172.461 70.92 172.421 71.22C172.401 71.5 172.351 71.83 172.271 72.21L159.701 72.24V69.09L170.321 69.06L168.341 70.38C168.321 69.54 168.191 68.85 167.951 68.31C167.711 67.75 167.351 67.33 166.871 67.05C166.411 66.75 165.841 66.6 165.161 66.6C164.441 66.6 163.811 66.77 163.271 67.11C162.751 67.43 162.341 67.89 162.041 68.49C161.761 69.09 161.621 69.82 161.621 70.68C161.621 71.54 161.771 72.28 162.071 72.9C162.391 73.5 162.831 73.97 163.391 74.31C163.971 74.63 164.651 74.79 165.431 74.79C166.151 74.79 166.801 74.67 167.381 74.43C167.961 74.17 168.471 73.79 168.911 73.29L171.431 75.81C170.711 76.65 169.841 77.28 168.821 77.7C167.801 78.12 166.681 78.33 165.461 78.33ZM184.326 78V69.69C184.326 68.93 184.086 68.32 183.606 67.86C183.146 67.38 182.556 67.14 181.836 67.14C181.336 67.14 180.896 67.25 180.516 67.47C180.136 67.67 179.836 67.97 179.616 68.37C179.396 68.75 179.286 69.19 179.286 69.69L177.516 68.82C177.516 67.68 177.766 66.68 178.266 65.82C178.766 64.96 179.456 64.3 180.336 63.84C181.236 63.36 182.246 63.12 183.366 63.12C184.446 63.12 185.396 63.38 186.216 63.9C187.056 64.4 187.716 65.07 188.196 65.91C188.676 66.75 188.916 67.67 188.916 68.67V78H184.326ZM174.696 78V63.42H179.286V78H174.696ZM193.758 78V57.39H198.348V78H193.758ZM190.458 67.32V63.42H201.648V67.32H190.458ZM209.468 78.3C208.128 78.3 206.928 77.97 205.868 77.31C204.828 76.65 203.998 75.75 203.378 74.61C202.778 73.47 202.478 72.17 202.478 70.71C202.478 69.25 202.778 67.95 203.378 66.81C203.998 65.67 204.828 64.77 205.868 64.11C206.928 63.45 208.128 63.12 209.468 63.12C210.448 63.12 211.328 63.31 212.108 63.69C212.908 64.07 213.558 64.6 214.058 65.28C214.558 65.94 214.838 66.7 214.898 67.56V73.86C214.838 74.72 214.558 75.49 214.058 76.17C213.578 76.83 212.938 77.35 212.138 77.73C211.338 78.11 210.448 78.3 209.468 78.3ZM210.398 74.16C211.378 74.16 212.168 73.84 212.768 73.2C213.368 72.54 213.668 71.71 213.668 70.71C213.668 70.03 213.528 69.43 213.248 68.91C212.988 68.39 212.608 67.99 212.108 67.71C211.628 67.41 211.068 67.26 210.428 67.26C209.788 67.26 209.218 67.41 208.718 67.71C208.238 67.99 207.848 68.39 207.548 68.91C207.268 69.43 207.128 70.03 207.128 70.71C207.128 71.37 207.268 71.96 207.548 72.48C207.828 73 208.218 73.41 208.718 73.71C209.218 74.01 209.778 74.16 210.398 74.16ZM213.488 78V74.07L214.178 70.53L213.488 66.99V63.42H217.988V78H213.488ZM223.29 78V57.39H227.88V78H223.29ZM219.99 67.32V63.42H231.18V67.32H219.99ZM233.202 78V63.42H237.792V78H233.202ZM235.512 61.41C234.792 61.41 234.192 61.17 233.712 60.69C233.252 60.19 233.022 59.59 233.022 58.89C233.022 58.17 233.252 57.57 233.712 57.09C234.192 56.61 234.792 56.37 235.512 56.37C236.232 56.37 236.822 56.61 237.282 57.09C237.742 57.57 237.972 58.17 237.972 58.89C237.972 59.59 237.742 60.19 237.282 60.69C236.822 61.17 236.232 61.41 235.512 61.41ZM248.044 78.33C246.544 78.33 245.184 78 243.964 77.34C242.764 76.66 241.814 75.74 241.114 74.58C240.414 73.42 240.064 72.12 240.064 70.68C240.064 69.24 240.414 67.95 241.114 66.81C241.814 65.67 242.764 64.77 243.964 64.11C245.164 63.43 246.524 63.09 248.044 63.09C249.564 63.09 250.924 63.42 252.124 64.08C253.324 64.74 254.274 65.65 254.974 66.81C255.674 67.95 256.024 69.24 256.024 70.68C256.024 72.12 255.674 73.42 254.974 74.58C254.274 75.74 253.324 76.66 252.124 77.34C250.924 78 249.564 78.33 248.044 78.33ZM248.044 74.16C248.704 74.16 249.284 74.02 249.784 73.74C250.284 73.44 250.664 73.03 250.924 72.51C251.204 71.97 251.344 71.36 251.344 70.68C251.344 70 251.204 69.41 250.924 68.91C250.644 68.39 250.254 67.99 249.754 67.71C249.274 67.41 248.704 67.26 248.044 67.26C247.404 67.26 246.834 67.41 246.334 67.71C245.834 67.99 245.444 68.39 245.164 68.91C244.884 69.43 244.744 70.03 244.744 70.71C244.744 71.37 244.884 71.97 245.164 72.51C245.444 73.03 245.834 73.44 246.334 73.74C246.834 74.02 247.404 74.16 248.044 74.16ZM267.939 78V69.69C267.939 68.93 267.699 68.32 267.219 67.86C266.759 67.38 266.169 67.14 265.449 67.14C264.949 67.14 264.509 67.25 264.129 67.47C263.749 67.67 263.449 67.97 263.229 68.37C263.009 68.75 262.899 69.19 262.899 69.69L261.129 68.82C261.129 67.68 261.379 66.68 261.879 65.82C262.379 64.96 263.069 64.3 263.949 63.84C264.849 63.36 265.859 63.12 266.979 63.12C268.059 63.12 269.009 63.38 269.829 63.9C270.669 64.4 271.329 65.07 271.809 65.91C272.289 66.75 272.529 67.67 272.529 68.67V78H267.939ZM258.309 78V63.42H262.899V78H258.309ZM280.787 78.36C279.927 78.36 279.077 78.25 278.237 78.03C277.417 77.81 276.647 77.5 275.927 77.1C275.227 76.68 274.627 76.2 274.127 75.66L276.737 73.02C277.217 73.54 277.787 73.95 278.447 74.25C279.107 74.53 279.827 74.67 280.607 74.67C281.147 74.67 281.557 74.59 281.837 74.43C282.137 74.27 282.287 74.05 282.287 73.77C282.287 73.41 282.107 73.14 281.747 72.96C281.407 72.76 280.967 72.59 280.427 72.45C279.887 72.29 279.317 72.12 278.717 71.94C278.117 71.76 277.547 71.51 277.007 71.19C276.467 70.87 276.027 70.43 275.687 69.87C275.347 69.29 275.177 68.56 275.177 67.68C275.177 66.74 275.417 65.93 275.897 65.25C276.377 64.55 277.057 64 277.937 63.6C278.817 63.2 279.847 63 281.027 63C282.267 63 283.407 63.22 284.447 63.66C285.507 64.08 286.367 64.71 287.027 65.55L284.417 68.19C283.957 67.65 283.437 67.27 282.857 67.05C282.297 66.83 281.747 66.72 281.207 66.72C280.687 66.72 280.297 66.8 280.037 66.96C279.777 67.1 279.647 67.31 279.647 67.59C279.647 67.89 279.817 68.13 280.157 68.31C280.497 68.49 280.937 68.65 281.477 68.79C282.017 68.93 282.587 69.1 283.187 69.3C283.787 69.5 284.357 69.77 284.897 70.11C285.437 70.45 285.877 70.91 286.217 71.49C286.557 72.05 286.727 72.79 286.727 73.71C286.727 75.13 286.187 76.26 285.107 77.1C284.047 77.94 282.607 78.36 280.787 78.36Z" fill="black"/>
<path d="M312.488 188.075L313.799 190.485L315.146 188.075H317.395L315.154 191.95L317.498 196H315.242L313.813 193.451L312.385 196H310.129L312.473 191.95L310.232 188.075H312.488ZM325.627 194.352V196H318.333V194.594L321.782 190.895C322.129 190.509 322.402 190.17 322.603 189.877C322.803 189.579 322.947 189.313 323.035 189.079C323.127 188.839 323.174 188.612 323.174 188.397C323.174 188.075 323.12 187.799 323.013 187.57C322.905 187.335 322.747 187.155 322.537 187.028C322.332 186.901 322.078 186.837 321.775 186.837C321.453 186.837 321.174 186.916 320.94 187.072C320.71 187.228 320.535 187.445 320.413 187.724C320.295 188.002 320.237 188.317 320.237 188.668H318.12C318.12 188.034 318.271 187.453 318.574 186.925C318.877 186.393 319.304 185.971 319.856 185.658C320.408 185.341 321.062 185.182 321.819 185.182C322.566 185.182 323.196 185.304 323.708 185.548C324.226 185.788 324.617 186.134 324.88 186.588C325.149 187.038 325.283 187.575 325.283 188.2C325.283 188.551 325.227 188.896 325.115 189.232C325.002 189.564 324.841 189.896 324.631 190.229C324.426 190.556 324.177 190.888 323.884 191.225C323.591 191.562 323.267 191.911 322.91 192.272L321.057 194.352H325.627ZM335.054 193.81C335.054 193.659 335.01 193.522 334.922 193.4C334.834 193.278 334.67 193.166 334.431 193.063C334.197 192.956 333.857 192.858 333.413 192.77C333.013 192.682 332.639 192.572 332.292 192.44C331.951 192.304 331.653 192.14 331.399 191.95C331.15 191.759 330.955 191.535 330.813 191.276C330.671 191.012 330.601 190.712 330.601 190.375C330.601 190.043 330.671 189.73 330.813 189.438C330.959 189.145 331.167 188.886 331.436 188.661C331.709 188.432 332.041 188.253 332.432 188.126C332.827 187.995 333.271 187.929 333.765 187.929C334.453 187.929 335.044 188.039 335.537 188.258C336.035 188.478 336.416 188.781 336.68 189.167C336.948 189.547 337.083 189.982 337.083 190.47H334.973C334.973 190.265 334.929 190.082 334.841 189.921C334.758 189.755 334.626 189.625 334.446 189.533C334.27 189.435 334.041 189.386 333.757 189.386C333.523 189.386 333.32 189.428 333.149 189.511C332.979 189.589 332.847 189.696 332.754 189.833C332.666 189.965 332.622 190.111 332.622 190.272C332.622 190.395 332.646 190.504 332.695 190.602C332.749 190.695 332.834 190.78 332.952 190.858C333.069 190.937 333.22 191.01 333.406 191.078C333.596 191.142 333.831 191.2 334.109 191.254C334.68 191.371 335.19 191.525 335.64 191.715C336.089 191.901 336.445 192.155 336.709 192.477C336.973 192.794 337.104 193.212 337.104 193.729C337.104 194.081 337.026 194.403 336.87 194.696C336.714 194.989 336.489 195.246 336.196 195.465C335.903 195.68 335.552 195.849 335.142 195.971C334.736 196.088 334.28 196.146 333.772 196.146C333.035 196.146 332.41 196.015 331.897 195.751C331.389 195.487 331.003 195.153 330.74 194.748C330.481 194.337 330.352 193.917 330.352 193.488H332.351C332.361 193.776 332.434 194.008 332.571 194.184C332.712 194.359 332.891 194.486 333.105 194.564C333.325 194.643 333.562 194.682 333.816 194.682C334.089 194.682 334.316 194.645 334.497 194.572C334.678 194.494 334.814 194.391 334.907 194.264C335.005 194.132 335.054 193.981 335.054 193.81ZM340.701 188.075V196H338.584V188.075H340.701ZM338.452 186.01C338.452 185.702 338.56 185.448 338.774 185.248C338.989 185.048 339.277 184.948 339.639 184.948C339.995 184.948 340.281 185.048 340.496 185.248C340.715 185.448 340.825 185.702 340.825 186.01C340.825 186.317 340.715 186.571 340.496 186.771C340.281 186.972 339.995 187.072 339.639 187.072C339.277 187.072 338.989 186.972 338.774 186.771C338.56 186.571 338.452 186.317 338.452 186.01ZM348.75 194.352V196H342.729V194.352H348.75ZM348.633 189.291L343.579 196H342.166V194.748L347.197 188.075H348.633V189.291ZM347.886 188.075V189.73H342.283V188.075H347.886ZM353.606 196.146C352.991 196.146 352.439 196.049 351.951 195.854C351.462 195.653 351.047 195.377 350.706 195.026C350.369 194.674 350.11 194.267 349.929 193.803C349.749 193.334 349.658 192.836 349.658 192.309V192.016C349.658 191.415 349.744 190.866 349.915 190.368C350.085 189.87 350.33 189.438 350.647 189.071C350.969 188.705 351.36 188.424 351.819 188.229C352.278 188.029 352.795 187.929 353.372 187.929C353.933 187.929 354.431 188.021 354.866 188.207C355.3 188.393 355.664 188.656 355.957 188.998C356.255 189.34 356.479 189.75 356.631 190.229C356.782 190.702 356.858 191.229 356.858 191.811V192.689H350.559V191.283H354.785V191.122C354.785 190.829 354.731 190.568 354.624 190.338C354.521 190.104 354.365 189.918 354.155 189.782C353.945 189.645 353.677 189.577 353.35 189.577C353.071 189.577 352.832 189.638 352.632 189.76C352.432 189.882 352.268 190.053 352.141 190.272C352.019 190.492 351.926 190.751 351.863 191.049C351.804 191.342 351.775 191.664 351.775 192.016V192.309C351.775 192.626 351.819 192.919 351.907 193.188C352 193.456 352.129 193.688 352.295 193.883C352.466 194.079 352.671 194.23 352.91 194.337C353.154 194.445 353.43 194.499 353.738 194.499C354.119 194.499 354.473 194.425 354.8 194.279C355.132 194.127 355.417 193.9 355.657 193.598L356.682 194.711C356.516 194.95 356.289 195.18 356.001 195.399C355.718 195.619 355.376 195.8 354.976 195.941C354.575 196.078 354.119 196.146 353.606 196.146ZM363.904 189.804V196H361.794V188.075H363.779L363.904 189.804ZM366.292 188.024L366.255 189.979C366.152 189.965 366.028 189.953 365.881 189.943C365.74 189.928 365.61 189.921 365.493 189.921C365.195 189.921 364.937 189.96 364.717 190.038C364.502 190.111 364.321 190.221 364.175 190.368C364.033 190.514 363.926 190.692 363.853 190.902C363.784 191.112 363.745 191.352 363.735 191.62L363.311 191.488C363.311 190.976 363.362 190.504 363.464 190.075C363.567 189.64 363.716 189.262 363.911 188.939C364.111 188.617 364.355 188.368 364.644 188.192C364.932 188.017 365.261 187.929 365.632 187.929C365.75 187.929 365.869 187.938 365.991 187.958C366.113 187.973 366.213 187.995 366.292 188.024ZM370.789 196.146C370.173 196.146 369.622 196.049 369.133 195.854C368.645 195.653 368.23 195.377 367.888 195.026C367.551 194.674 367.292 194.267 367.112 193.803C366.931 193.334 366.841 192.836 366.841 192.309V192.016C366.841 191.415 366.926 190.866 367.097 190.368C367.268 189.87 367.512 189.438 367.83 189.071C368.152 188.705 368.542 188.424 369.001 188.229C369.46 188.029 369.978 187.929 370.554 187.929C371.116 187.929 371.614 188.021 372.048 188.207C372.483 188.393 372.847 188.656 373.14 188.998C373.438 189.34 373.662 189.75 373.813 190.229C373.965 190.702 374.041 191.229 374.041 191.811V192.689H367.742V191.283H371.968V191.122C371.968 190.829 371.914 190.568 371.807 190.338C371.704 190.104 371.548 189.918 371.338 189.782C371.128 189.645 370.859 189.577 370.532 189.577C370.254 189.577 370.015 189.638 369.814 189.76C369.614 189.882 369.451 190.053 369.324 190.272C369.202 190.492 369.109 190.751 369.045 191.049C368.987 191.342 368.958 191.664 368.958 192.016V192.309C368.958 192.626 369.001 192.919 369.089 193.188C369.182 193.456 369.312 193.688 369.478 193.883C369.648 194.079 369.854 194.23 370.093 194.337C370.337 194.445 370.613 194.499 370.92 194.499C371.301 194.499 371.655 194.425 371.982 194.279C372.314 194.127 372.6 193.9 372.839 193.598L373.865 194.711C373.699 194.95 373.472 195.18 373.184 195.399C372.9 195.619 372.559 195.8 372.158 195.941C371.758 196.078 371.301 196.146 370.789 196.146ZM379.922 194.271V184.75H382.046V196H380.134L379.922 194.271ZM374.912 192.133V191.979C374.912 191.374 374.98 190.824 375.117 190.331C375.254 189.833 375.454 189.406 375.718 189.049C375.981 188.693 376.306 188.417 376.692 188.222C377.078 188.026 377.517 187.929 378.01 187.929C378.474 187.929 378.879 188.026 379.226 188.222C379.578 188.417 379.875 188.695 380.12 189.057C380.369 189.413 380.569 189.835 380.72 190.324C380.872 190.807 380.981 191.337 381.05 191.913V192.25C380.981 192.802 380.872 193.314 380.72 193.788C380.569 194.262 380.369 194.677 380.12 195.033C379.875 195.385 379.578 195.658 379.226 195.854C378.875 196.049 378.464 196.146 377.996 196.146C377.502 196.146 377.063 196.046 376.677 195.846C376.296 195.646 375.974 195.365 375.71 195.004C375.452 194.643 375.254 194.218 375.117 193.729C374.98 193.241 374.912 192.709 374.912 192.133ZM377.021 191.979V192.133C377.021 192.46 377.046 192.765 377.095 193.048C377.148 193.332 377.234 193.583 377.351 193.803C377.473 194.018 377.629 194.186 377.82 194.308C378.015 194.425 378.252 194.484 378.53 194.484C378.892 194.484 379.189 194.403 379.424 194.242C379.658 194.076 379.836 193.849 379.958 193.561C380.085 193.273 380.159 192.941 380.178 192.565V191.605C380.164 191.298 380.12 191.022 380.046 190.778C379.978 190.529 379.875 190.316 379.739 190.141C379.607 189.965 379.441 189.828 379.241 189.73C379.045 189.633 378.813 189.584 378.545 189.584C378.271 189.584 378.037 189.647 377.842 189.774C377.646 189.896 377.488 190.065 377.366 190.28C377.249 190.495 377.161 190.749 377.102 191.042C377.048 191.33 377.021 191.642 377.021 191.979ZM388.381 194.103V188.075H390.491V196H388.506L388.381 194.103ZM388.616 192.477L389.238 192.462C389.238 192.99 389.177 193.48 389.055 193.935C388.933 194.384 388.75 194.774 388.506 195.106C388.262 195.434 387.954 195.69 387.583 195.875C387.212 196.056 386.775 196.146 386.272 196.146C385.886 196.146 385.53 196.093 385.203 195.985C384.88 195.873 384.602 195.7 384.368 195.465C384.138 195.226 383.958 194.921 383.826 194.55C383.699 194.174 383.635 193.722 383.635 193.195V188.075H385.745V193.209C385.745 193.444 385.771 193.642 385.825 193.803C385.884 193.964 385.964 194.096 386.067 194.198C386.169 194.301 386.289 194.374 386.426 194.418C386.567 194.462 386.724 194.484 386.895 194.484C387.329 194.484 387.671 194.396 387.92 194.22C388.174 194.044 388.352 193.805 388.455 193.502C388.562 193.195 388.616 192.853 388.616 192.477ZM395.376 194.499C395.635 194.499 395.864 194.45 396.064 194.352C396.265 194.25 396.421 194.108 396.533 193.927C396.65 193.742 396.711 193.524 396.716 193.275H398.701C398.696 193.832 398.547 194.328 398.254 194.762C397.961 195.192 397.568 195.531 397.075 195.78C396.582 196.024 396.03 196.146 395.42 196.146C394.805 196.146 394.268 196.044 393.809 195.839C393.354 195.634 392.976 195.351 392.673 194.989C392.371 194.623 392.144 194.198 391.992 193.715C391.841 193.227 391.765 192.704 391.765 192.147V191.935C391.765 191.374 391.841 190.851 391.992 190.368C392.144 189.879 392.371 189.455 392.673 189.093C392.976 188.727 393.354 188.441 393.809 188.236C394.263 188.031 394.795 187.929 395.405 187.929C396.055 187.929 396.624 188.053 397.112 188.302C397.605 188.551 397.991 188.908 398.269 189.372C398.552 189.831 398.696 190.375 398.701 191.005H396.716C396.711 190.741 396.655 190.502 396.548 190.287C396.445 190.072 396.294 189.901 396.094 189.774C395.898 189.643 395.657 189.577 395.369 189.577C395.061 189.577 394.81 189.643 394.614 189.774C394.419 189.901 394.268 190.077 394.16 190.302C394.053 190.521 393.977 190.773 393.933 191.056C393.894 191.334 393.875 191.627 393.875 191.935V192.147C393.875 192.455 393.894 192.75 393.933 193.034C393.972 193.317 394.045 193.568 394.153 193.788C394.265 194.008 394.419 194.181 394.614 194.308C394.81 194.435 395.063 194.499 395.376 194.499ZM403.806 188.075V189.569H399.192V188.075H403.806ZM400.334 186.12H402.444V193.612C402.444 193.842 402.473 194.018 402.532 194.14C402.595 194.262 402.688 194.347 402.81 194.396C402.932 194.44 403.086 194.462 403.271 194.462C403.403 194.462 403.521 194.457 403.623 194.447C403.73 194.433 403.821 194.418 403.894 194.403L403.901 195.956C403.721 196.015 403.525 196.061 403.315 196.095C403.105 196.129 402.874 196.146 402.62 196.146C402.156 196.146 401.75 196.071 401.404 195.919C401.062 195.763 400.798 195.514 400.613 195.172C400.427 194.831 400.334 194.381 400.334 193.825V186.12ZM407.234 188.075V196H405.117V188.075H407.234ZM404.985 186.01C404.985 185.702 405.093 185.448 405.308 185.248C405.522 185.048 405.811 184.948 406.172 184.948C406.528 184.948 406.814 185.048 407.029 185.248C407.249 185.448 407.358 185.702 407.358 186.01C407.358 186.317 407.249 186.571 407.029 186.771C406.814 186.972 406.528 187.072 406.172 187.072C405.811 187.072 405.522 186.972 405.308 186.771C405.093 186.571 404.985 186.317 404.985 186.01ZM408.64 192.118V191.964C408.64 191.383 408.723 190.849 408.889 190.36C409.055 189.867 409.297 189.44 409.614 189.079C409.932 188.717 410.322 188.437 410.786 188.236C411.25 188.031 411.782 187.929 412.383 187.929C412.983 187.929 413.518 188.031 413.987 188.236C414.456 188.437 414.849 188.717 415.166 189.079C415.488 189.44 415.732 189.867 415.898 190.36C416.064 190.849 416.147 191.383 416.147 191.964V192.118C416.147 192.694 416.064 193.229 415.898 193.722C415.732 194.21 415.488 194.638 415.166 195.004C414.849 195.365 414.458 195.646 413.994 195.846C413.53 196.046 412.998 196.146 412.397 196.146C411.797 196.146 411.262 196.046 410.793 195.846C410.33 195.646 409.937 195.365 409.614 195.004C409.297 194.638 409.055 194.21 408.889 193.722C408.723 193.229 408.64 192.694 408.64 192.118ZM410.75 191.964V192.118C410.75 192.45 410.779 192.76 410.837 193.048C410.896 193.336 410.989 193.59 411.116 193.81C411.248 194.025 411.418 194.193 411.628 194.315C411.838 194.438 412.095 194.499 412.397 194.499C412.69 194.499 412.942 194.438 413.152 194.315C413.362 194.193 413.53 194.025 413.657 193.81C413.784 193.59 413.877 193.336 413.936 193.048C413.999 192.76 414.031 192.45 414.031 192.118V191.964C414.031 191.642 413.999 191.339 413.936 191.056C413.877 190.768 413.782 190.514 413.65 190.294C413.523 190.07 413.354 189.894 413.145 189.767C412.935 189.64 412.681 189.577 412.383 189.577C412.085 189.577 411.831 189.64 411.621 189.767C411.416 189.894 411.248 190.07 411.116 190.294C410.989 190.514 410.896 190.768 410.837 191.056C410.779 191.339 410.75 191.642 410.75 191.964ZM419.509 189.767V196H417.4V188.075H419.377L419.509 189.767ZM419.202 191.759H418.63C418.63 191.173 418.706 190.646 418.857 190.177C419.009 189.704 419.221 189.301 419.495 188.969C419.768 188.632 420.093 188.375 420.469 188.2C420.85 188.019 421.274 187.929 421.743 187.929C422.114 187.929 422.454 187.982 422.761 188.09C423.069 188.197 423.333 188.368 423.552 188.603C423.777 188.837 423.948 189.147 424.065 189.533C424.187 189.918 424.248 190.39 424.248 190.946V196H422.124V190.939C422.124 190.587 422.075 190.314 421.978 190.119C421.88 189.923 421.736 189.787 421.545 189.708C421.36 189.625 421.13 189.584 420.857 189.584C420.574 189.584 420.327 189.64 420.117 189.752C419.912 189.865 419.741 190.021 419.604 190.221C419.473 190.417 419.373 190.646 419.304 190.91C419.236 191.173 419.202 191.457 419.202 191.759Z" fill="black"/>
<path d="M312.488 256.075L313.799 258.485L315.146 256.075H317.395L315.154 259.95L317.498 264H315.242L313.813 261.451L312.385 264H310.129L312.473 259.95L310.232 256.075H312.488ZM325.627 262.352V264H318.333V262.594L321.782 258.895C322.129 258.509 322.402 258.17 322.603 257.877C322.803 257.579 322.947 257.313 323.035 257.079C323.127 256.839 323.174 256.612 323.174 256.397C323.174 256.075 323.12 255.799 323.013 255.57C322.905 255.335 322.747 255.155 322.537 255.028C322.332 254.901 322.078 254.837 321.775 254.837C321.453 254.837 321.174 254.916 320.94 255.072C320.71 255.228 320.535 255.445 320.413 255.724C320.295 256.002 320.237 256.317 320.237 256.668H318.12C318.12 256.034 318.271 255.453 318.574 254.925C318.877 254.393 319.304 253.971 319.856 253.658C320.408 253.341 321.062 253.182 321.819 253.182C322.566 253.182 323.196 253.304 323.708 253.548C324.226 253.788 324.617 254.134 324.88 254.588C325.149 255.038 325.283 255.575 325.283 256.2C325.283 256.551 325.227 256.896 325.115 257.232C325.002 257.564 324.841 257.896 324.631 258.229C324.426 258.556 324.177 258.888 323.884 259.225C323.591 259.562 323.267 259.911 322.91 260.272L321.057 262.352H325.627ZM335.054 261.81C335.054 261.659 335.01 261.522 334.922 261.4C334.834 261.278 334.67 261.166 334.431 261.063C334.197 260.956 333.857 260.858 333.413 260.77C333.013 260.682 332.639 260.572 332.292 260.44C331.951 260.304 331.653 260.14 331.399 259.95C331.15 259.759 330.955 259.535 330.813 259.276C330.671 259.012 330.601 258.712 330.601 258.375C330.601 258.043 330.671 257.73 330.813 257.438C330.959 257.145 331.167 256.886 331.436 256.661C331.709 256.432 332.041 256.253 332.432 256.126C332.827 255.995 333.271 255.929 333.765 255.929C334.453 255.929 335.044 256.039 335.537 256.258C336.035 256.478 336.416 256.781 336.68 257.167C336.948 257.547 337.083 257.982 337.083 258.47H334.973C334.973 258.265 334.929 258.082 334.841 257.921C334.758 257.755 334.626 257.625 334.446 257.533C334.27 257.435 334.041 257.386 333.757 257.386C333.523 257.386 333.32 257.428 333.149 257.511C332.979 257.589 332.847 257.696 332.754 257.833C332.666 257.965 332.622 258.111 332.622 258.272C332.622 258.395 332.646 258.504 332.695 258.602C332.749 258.695 332.834 258.78 332.952 258.858C333.069 258.937 333.22 259.01 333.406 259.078C333.596 259.142 333.831 259.2 334.109 259.254C334.68 259.371 335.19 259.525 335.64 259.715C336.089 259.901 336.445 260.155 336.709 260.477C336.973 260.794 337.104 261.212 337.104 261.729C337.104 262.081 337.026 262.403 336.87 262.696C336.714 262.989 336.489 263.246 336.196 263.465C335.903 263.68 335.552 263.849 335.142 263.971C334.736 264.088 334.28 264.146 333.772 264.146C333.035 264.146 332.41 264.015 331.897 263.751C331.389 263.487 331.003 263.153 330.74 262.748C330.481 262.337 330.352 261.917 330.352 261.488H332.351C332.361 261.776 332.434 262.008 332.571 262.184C332.712 262.359 332.891 262.486 333.105 262.564C333.325 262.643 333.562 262.682 333.816 262.682C334.089 262.682 334.316 262.645 334.497 262.572C334.678 262.494 334.814 262.391 334.907 262.264C335.005 262.132 335.054 261.981 335.054 261.81ZM340.701 256.075V264H338.584V256.075H340.701ZM338.452 254.01C338.452 253.702 338.56 253.448 338.774 253.248C338.989 253.048 339.277 252.948 339.639 252.948C339.995 252.948 340.281 253.048 340.496 253.248C340.715 253.448 340.825 253.702 340.825 254.01C340.825 254.317 340.715 254.571 340.496 254.771C340.281 254.972 339.995 255.072 339.639 255.072C339.277 255.072 338.989 254.972 338.774 254.771C338.56 254.571 338.452 254.317 338.452 254.01ZM348.75 262.352V264H342.729V262.352H348.75ZM348.633 257.291L343.579 264H342.166V262.748L347.197 256.075H348.633V257.291ZM347.886 256.075V257.73H342.283V256.075H347.886ZM353.606 264.146C352.991 264.146 352.439 264.049 351.951 263.854C351.462 263.653 351.047 263.377 350.706 263.026C350.369 262.674 350.11 262.267 349.929 261.803C349.749 261.334 349.658 260.836 349.658 260.309V260.016C349.658 259.415 349.744 258.866 349.915 258.368C350.085 257.87 350.33 257.438 350.647 257.071C350.969 256.705 351.36 256.424 351.819 256.229C352.278 256.029 352.795 255.929 353.372 255.929C353.933 255.929 354.431 256.021 354.866 256.207C355.3 256.393 355.664 256.656 355.957 256.998C356.255 257.34 356.479 257.75 356.631 258.229C356.782 258.702 356.858 259.229 356.858 259.811V260.689H350.559V259.283H354.785V259.122C354.785 258.829 354.731 258.568 354.624 258.338C354.521 258.104 354.365 257.918 354.155 257.782C353.945 257.645 353.677 257.577 353.35 257.577C353.071 257.577 352.832 257.638 352.632 257.76C352.432 257.882 352.268 258.053 352.141 258.272C352.019 258.492 351.926 258.751 351.863 259.049C351.804 259.342 351.775 259.664 351.775 260.016V260.309C351.775 260.626 351.819 260.919 351.907 261.188C352 261.456 352.129 261.688 352.295 261.883C352.466 262.079 352.671 262.23 352.91 262.337C353.154 262.445 353.43 262.499 353.738 262.499C354.119 262.499 354.473 262.425 354.8 262.279C355.132 262.127 355.417 261.9 355.657 261.598L356.682 262.711C356.516 262.95 356.289 263.18 356.001 263.399C355.718 263.619 355.376 263.8 354.976 263.941C354.575 264.078 354.119 264.146 353.606 264.146ZM363.904 257.804V264H361.794V256.075H363.779L363.904 257.804ZM366.292 256.024L366.255 257.979C366.152 257.965 366.028 257.953 365.881 257.943C365.74 257.928 365.61 257.921 365.493 257.921C365.195 257.921 364.937 257.96 364.717 258.038C364.502 258.111 364.321 258.221 364.175 258.368C364.033 258.514 363.926 258.692 363.853 258.902C363.784 259.112 363.745 259.352 363.735 259.62L363.311 259.488C363.311 258.976 363.362 258.504 363.464 258.075C363.567 257.64 363.716 257.262 363.911 256.939C364.111 256.617 364.355 256.368 364.644 256.192C364.932 256.017 365.261 255.929 365.632 255.929C365.75 255.929 365.869 255.938 365.991 255.958C366.113 255.973 366.213 255.995 366.292 256.024ZM370.789 264.146C370.173 264.146 369.622 264.049 369.133 263.854C368.645 263.653 368.23 263.377 367.888 263.026C367.551 262.674 367.292 262.267 367.112 261.803C366.931 261.334 366.841 260.836 366.841 260.309V260.016C366.841 259.415 366.926 258.866 367.097 258.368C367.268 257.87 367.512 257.438 367.83 257.071C368.152 256.705 368.542 256.424 369.001 256.229C369.46 256.029 369.978 255.929 370.554 255.929C371.116 255.929 371.614 256.021 372.048 256.207C372.483 256.393 372.847 256.656 373.14 256.998C373.438 257.34 373.662 257.75 373.813 258.229C373.965 258.702 374.041 259.229 374.041 259.811V260.689H367.742V259.283H371.968V259.122C371.968 258.829 371.914 258.568 371.807 258.338C371.704 258.104 371.548 257.918 371.338 257.782C371.128 257.645 370.859 257.577 370.532 257.577C370.254 257.577 370.015 257.638 369.814 257.76C369.614 257.882 369.451 258.053 369.324 258.272C369.202 258.492 369.109 258.751 369.045 259.049C368.987 259.342 368.958 259.664 368.958 260.016V260.309C368.958 260.626 369.001 260.919 369.089 261.188C369.182 261.456 369.312 261.688 369.478 261.883C369.648 262.079 369.854 262.23 370.093 262.337C370.337 262.445 370.613 262.499 370.92 262.499C371.301 262.499 371.655 262.425 371.982 262.279C372.314 262.127 372.6 261.9 372.839 261.598L373.865 262.711C373.699 262.95 373.472 263.18 373.184 263.399C372.9 263.619 372.559 263.8 372.158 263.941C371.758 264.078 371.301 264.146 370.789 264.146ZM379.922 262.271V252.75H382.046V264H380.134L379.922 262.271ZM374.912 260.133V259.979C374.912 259.374 374.98 258.824 375.117 258.331C375.254 257.833 375.454 257.406 375.718 257.049C375.981 256.693 376.306 256.417 376.692 256.222C377.078 256.026 377.517 255.929 378.01 255.929C378.474 255.929 378.879 256.026 379.226 256.222C379.578 256.417 379.875 256.695 380.12 257.057C380.369 257.413 380.569 257.835 380.72 258.324C380.872 258.807 380.981 259.337 381.05 259.913V260.25C380.981 260.802 380.872 261.314 380.72 261.788C380.569 262.262 380.369 262.677 380.12 263.033C379.875 263.385 379.578 263.658 379.226 263.854C378.875 264.049 378.464 264.146 377.996 264.146C377.502 264.146 377.063 264.046 376.677 263.846C376.296 263.646 375.974 263.365 375.71 263.004C375.452 262.643 375.254 262.218 375.117 261.729C374.98 261.241 374.912 260.709 374.912 260.133ZM377.021 259.979V260.133C377.021 260.46 377.046 260.765 377.095 261.048C377.148 261.332 377.234 261.583 377.351 261.803C377.473 262.018 377.629 262.186 377.82 262.308C378.015 262.425 378.252 262.484 378.53 262.484C378.892 262.484 379.189 262.403 379.424 262.242C379.658 262.076 379.836 261.849 379.958 261.561C380.085 261.273 380.159 260.941 380.178 260.565V259.605C380.164 259.298 380.12 259.022 380.046 258.778C379.978 258.529 379.875 258.316 379.739 258.141C379.607 257.965 379.441 257.828 379.241 257.73C379.045 257.633 378.813 257.584 378.545 257.584C378.271 257.584 378.037 257.647 377.842 257.774C377.646 257.896 377.488 258.065 377.366 258.28C377.249 258.495 377.161 258.749 377.102 259.042C377.048 259.33 377.021 259.642 377.021 259.979ZM388.381 262.103V256.075H390.491V264H388.506L388.381 262.103ZM388.616 260.477L389.238 260.462C389.238 260.99 389.177 261.48 389.055 261.935C388.933 262.384 388.75 262.774 388.506 263.106C388.262 263.434 387.954 263.69 387.583 263.875C387.212 264.056 386.775 264.146 386.272 264.146C385.886 264.146 385.53 264.093 385.203 263.985C384.88 263.873 384.602 263.7 384.368 263.465C384.138 263.226 383.958 262.921 383.826 262.55C383.699 262.174 383.635 261.722 383.635 261.195V256.075H385.745V261.209C385.745 261.444 385.771 261.642 385.825 261.803C385.884 261.964 385.964 262.096 386.067 262.198C386.169 262.301 386.289 262.374 386.426 262.418C386.567 262.462 386.724 262.484 386.895 262.484C387.329 262.484 387.671 262.396 387.92 262.22C388.174 262.044 388.352 261.805 388.455 261.502C388.562 261.195 388.616 260.853 388.616 260.477ZM395.376 262.499C395.635 262.499 395.864 262.45 396.064 262.352C396.265 262.25 396.421 262.108 396.533 261.927C396.65 261.742 396.711 261.524 396.716 261.275H398.701C398.696 261.832 398.547 262.328 398.254 262.762C397.961 263.192 397.568 263.531 397.075 263.78C396.582 264.024 396.03 264.146 395.42 264.146C394.805 264.146 394.268 264.044 393.809 263.839C393.354 263.634 392.976 263.351 392.673 262.989C392.371 262.623 392.144 262.198 391.992 261.715C391.841 261.227 391.765 260.704 391.765 260.147V259.935C391.765 259.374 391.841 258.851 391.992 258.368C392.144 257.879 392.371 257.455 392.673 257.093C392.976 256.727 393.354 256.441 393.809 256.236C394.263 256.031 394.795 255.929 395.405 255.929C396.055 255.929 396.624 256.053 397.112 256.302C397.605 256.551 397.991 256.908 398.269 257.372C398.552 257.831 398.696 258.375 398.701 259.005H396.716C396.711 258.741 396.655 258.502 396.548 258.287C396.445 258.072 396.294 257.901 396.094 257.774C395.898 257.643 395.657 257.577 395.369 257.577C395.061 257.577 394.81 257.643 394.614 257.774C394.419 257.901 394.268 258.077 394.16 258.302C394.053 258.521 393.977 258.773 393.933 259.056C393.894 259.334 393.875 259.627 393.875 259.935V260.147C393.875 260.455 393.894 260.75 393.933 261.034C393.972 261.317 394.045 261.568 394.153 261.788C394.265 262.008 394.419 262.181 394.614 262.308C394.81 262.435 395.063 262.499 395.376 262.499ZM403.806 256.075V257.569H399.192V256.075H403.806ZM400.334 254.12H402.444V261.612C402.444 261.842 402.473 262.018 402.532 262.14C402.595 262.262 402.688 262.347 402.81 262.396C402.932 262.44 403.086 262.462 403.271 262.462C403.403 262.462 403.521 262.457 403.623 262.447C403.73 262.433 403.821 262.418 403.894 262.403L403.901 263.956C403.721 264.015 403.525 264.061 403.315 264.095C403.105 264.129 402.874 264.146 402.62 264.146C402.156 264.146 401.75 264.071 401.404 263.919C401.062 263.763 400.798 263.514 400.613 263.172C400.427 262.831 400.334 262.381 400.334 261.825V254.12ZM407.234 256.075V264H405.117V256.075H407.234ZM404.985 254.01C404.985 253.702 405.093 253.448 405.308 253.248C405.522 253.048 405.811 252.948 406.172 252.948C406.528 252.948 406.814 253.048 407.029 253.248C407.249 253.448 407.358 253.702 407.358 254.01C407.358 254.317 407.249 254.571 407.029 254.771C406.814 254.972 406.528 255.072 406.172 255.072C405.811 255.072 405.522 254.972 405.308 254.771C405.093 254.571 404.985 254.317 404.985 254.01ZM408.64 260.118V259.964C408.64 259.383 408.723 258.849 408.889 258.36C409.055 257.867 409.297 257.44 409.614 257.079C409.932 256.717 410.322 256.437 410.786 256.236C411.25 256.031 411.782 255.929 412.383 255.929C412.983 255.929 413.518 256.031 413.987 256.236C414.456 256.437 414.849 256.717 415.166 257.079C415.488 257.44 415.732 257.867 415.898 258.36C416.064 258.849 416.147 259.383 416.147 259.964V260.118C416.147 260.694 416.064 261.229 415.898 261.722C415.732 262.21 415.488 262.638 415.166 263.004C414.849 263.365 414.458 263.646 413.994 263.846C413.53 264.046 412.998 264.146 412.397 264.146C411.797 264.146 411.262 264.046 410.793 263.846C410.33 263.646 409.937 263.365 409.614 263.004C409.297 262.638 409.055 262.21 408.889 261.722C408.723 261.229 408.64 260.694 408.64 260.118ZM410.75 259.964V260.118C410.75 260.45 410.779 260.76 410.837 261.048C410.896 261.336 410.989 261.59 411.116 261.81C411.248 262.025 411.418 262.193 411.628 262.315C411.838 262.438 412.095 262.499 412.397 262.499C412.69 262.499 412.942 262.438 413.152 262.315C413.362 262.193 413.53 262.025 413.657 261.81C413.784 261.59 413.877 261.336 413.936 261.048C413.999 260.76 414.031 260.45 414.031 260.118V259.964C414.031 259.642 413.999 259.339 413.936 259.056C413.877 258.768 413.782 258.514 413.65 258.294C413.523 258.07 413.354 257.894 413.145 257.767C412.935 257.64 412.681 257.577 412.383 257.577C412.085 257.577 411.831 257.64 411.621 257.767C411.416 257.894 411.248 258.07 411.116 258.294C410.989 258.514 410.896 258.768 410.837 259.056C410.779 259.339 410.75 259.642 410.75 259.964ZM419.509 257.767V264H417.4V256.075H419.377L419.509 257.767ZM419.202 259.759H418.63C418.63 259.173 418.706 258.646 418.857 258.177C419.009 257.704 419.221 257.301 419.495 256.969C419.768 256.632 420.093 256.375 420.469 256.2C420.85 256.019 421.274 255.929 421.743 255.929C422.114 255.929 422.454 255.982 422.761 256.09C423.069 256.197 423.333 256.368 423.552 256.603C423.777 256.837 423.948 257.147 424.065 257.533C424.187 257.918 424.248 258.39 424.248 258.946V264H422.124V258.939C422.124 258.587 422.075 258.314 421.978 258.119C421.88 257.923 421.736 257.787 421.545 257.708C421.36 257.625 421.13 257.584 420.857 257.584C420.574 257.584 420.327 257.64 420.117 257.752C419.912 257.865 419.741 258.021 419.604 258.221C419.473 258.417 419.373 258.646 419.304 258.91C419.236 259.173 419.202 259.457 419.202 259.759Z" fill="black"/>
<path d="M500.236 40V18.82H503.596L511.936 31.81H510.226L518.536 18.82H521.926V40H517.216V26.77L518.056 26.98L512.626 35.44H509.506L504.106 26.98L504.916 26.77V40H500.236ZM532.588 40.33C531.088 40.33 529.728 40 528.508 39.34C527.308 38.66 526.358 37.74 525.658 36.58C524.958 35.42 524.608 34.12 524.608 32.68C524.608 31.24 524.958 29.95 525.658 28.81C526.358 27.67 527.308 26.77 528.508 26.11C529.708 25.43 531.068 25.09 532.588 25.09C534.108 25.09 535.468 25.42 536.668 26.08C537.868 26.74 538.818 27.65 539.518 28.81C540.218 29.95 540.568 31.24 540.568 32.68C540.568 34.12 540.218 35.42 539.518 36.58C538.818 37.74 537.868 38.66 536.668 39.34C535.468 40 534.108 40.33 532.588 40.33ZM532.588 36.16C533.248 36.16 533.828 36.02 534.328 35.74C534.828 35.44 535.208 35.03 535.468 34.51C535.748 33.97 535.888 33.36 535.888 32.68C535.888 32 535.748 31.41 535.468 30.91C535.188 30.39 534.798 29.99 534.298 29.71C533.818 29.41 533.248 29.26 532.588 29.26C531.948 29.26 531.378 29.41 530.878 29.71C530.378 29.99 529.988 30.39 529.708 30.91C529.428 31.43 529.288 32.03 529.288 32.71C529.288 33.37 529.428 33.97 529.708 34.51C529.988 35.03 530.378 35.44 530.878 35.74C531.378 36.02 531.948 36.16 532.588 36.16ZM542.853 40V18.22H547.443V40H542.853ZM557.876 40.33C556.296 40.33 554.886 40.01 553.646 39.37C552.426 38.71 551.466 37.8 550.766 36.64C550.066 35.48 549.716 34.17 549.716 32.71C549.716 31.25 550.056 29.95 550.736 28.81C551.436 27.65 552.376 26.74 553.556 26.08C554.736 25.42 556.066 25.09 557.546 25.09C558.986 25.09 560.256 25.4 561.356 26.02C562.456 26.64 563.316 27.5 563.936 28.6C564.576 29.7 564.896 30.96 564.896 32.38C564.896 32.64 564.876 32.92 564.836 33.22C564.816 33.5 564.766 33.83 564.686 34.21L552.116 34.24V31.09L562.736 31.06L560.756 32.38C560.736 31.54 560.606 30.85 560.366 30.31C560.126 29.75 559.766 29.33 559.286 29.05C558.826 28.75 558.256 28.6 557.576 28.6C556.856 28.6 556.226 28.77 555.686 29.11C555.166 29.43 554.756 29.89 554.456 30.49C554.176 31.09 554.036 31.82 554.036 32.68C554.036 33.54 554.186 34.28 554.486 34.9C554.806 35.5 555.246 35.97 555.806 36.31C556.386 36.63 557.066 36.79 557.846 36.79C558.566 36.79 559.216 36.67 559.796 36.43C560.376 36.17 560.886 35.79 561.326 35.29L563.846 37.81C563.126 38.65 562.256 39.28 561.236 39.7C560.216 40.12 559.096 40.33 557.876 40.33ZM574.161 40.33C572.661 40.33 571.301 40 570.081 39.34C568.861 38.68 567.901 37.77 567.201 36.61C566.501 35.45 566.151 34.15 566.151 32.71C566.151 31.25 566.501 29.95 567.201 28.81C567.921 27.65 568.891 26.74 570.111 26.08C571.331 25.42 572.701 25.09 574.221 25.09C575.361 25.09 576.401 25.29 577.341 25.69C578.301 26.07 579.151 26.65 579.891 27.43L576.951 30.37C576.611 29.99 576.211 29.71 575.751 29.53C575.311 29.35 574.801 29.26 574.221 29.26C573.561 29.26 572.971 29.41 572.451 29.71C571.951 29.99 571.551 30.39 571.251 30.91C570.971 31.41 570.831 32 570.831 32.68C570.831 33.36 570.971 33.96 571.251 34.48C571.551 35 571.961 35.41 572.481 35.71C573.001 36.01 573.581 36.16 574.221 36.16C574.821 36.16 575.351 36.06 575.811 35.86C576.291 35.64 576.701 35.34 577.041 34.96L579.951 37.9C579.191 38.7 578.331 39.31 577.371 39.73C576.411 40.13 575.341 40.33 574.161 40.33ZM588.474 40.33C587.134 40.33 585.944 40.06 584.904 39.52C583.884 38.96 583.084 38.2 582.504 37.24C581.924 36.26 581.634 35.14 581.634 33.88V25.42H586.224V33.82C586.224 34.32 586.304 34.75 586.464 35.11C586.644 35.47 586.904 35.75 587.244 35.95C587.584 36.15 587.994 36.25 588.474 36.25C589.154 36.25 589.694 36.04 590.094 35.62C590.494 35.18 590.694 34.58 590.694 33.82V25.42H595.284V33.85C595.284 35.13 594.994 36.26 594.414 37.24C593.834 38.2 593.034 38.96 592.014 39.52C590.994 40.06 589.814 40.33 588.474 40.33ZM598.166 40V18.22H602.756V40H598.166ZM613.188 40.33C611.608 40.33 610.198 40.01 608.958 39.37C607.738 38.71 606.778 37.8 606.078 36.64C605.378 35.48 605.028 34.17 605.028 32.71C605.028 31.25 605.368 29.95 606.048 28.81C606.748 27.65 607.688 26.74 608.868 26.08C610.048 25.42 611.378 25.09 612.858 25.09C614.298 25.09 615.568 25.4 616.668 26.02C617.768 26.64 618.628 27.5 619.248 28.6C619.888 29.7 620.208 30.96 620.208 32.38C620.208 32.64 620.188 32.92 620.148 33.22C620.128 33.5 620.078 33.83 619.998 34.21L607.428 34.24V31.09L618.048 31.06L616.068 32.38C616.048 31.54 615.918 30.85 615.678 30.31C615.438 29.75 615.078 29.33 614.598 29.05C614.138 28.75 613.568 28.6 612.888 28.6C612.168 28.6 611.538 28.77 610.998 29.11C610.478 29.43 610.068 29.89 609.768 30.49C609.488 31.09 609.348 31.82 609.348 32.68C609.348 33.54 609.498 34.28 609.798 34.9C610.118 35.5 610.558 35.97 611.118 36.31C611.698 36.63 612.378 36.79 613.158 36.79C613.878 36.79 614.528 36.67 615.108 36.43C615.688 36.17 616.198 35.79 616.638 35.29L619.158 37.81C618.438 38.65 617.568 39.28 616.548 39.7C615.528 40.12 614.408 40.33 613.188 40.33ZM451.022 78V63.42H455.612V78H451.022ZM455.612 69.99L453.692 68.49C454.072 66.79 454.712 65.47 455.612 64.53C456.512 63.59 457.762 63.12 459.362 63.12C460.062 63.12 460.672 63.23 461.192 63.45C461.732 63.65 462.202 63.97 462.602 64.41L459.872 67.86C459.672 67.64 459.422 67.47 459.122 67.35C458.822 67.23 458.482 67.17 458.102 67.17C457.342 67.17 456.732 67.41 456.272 67.89C455.832 68.35 455.612 69.05 455.612 69.99ZM470.615 78.33C469.035 78.33 467.625 78.01 466.385 77.37C465.165 76.71 464.205 75.8 463.505 74.64C462.805 73.48 462.455 72.17 462.455 70.71C462.455 69.25 462.795 67.95 463.475 66.81C464.175 65.65 465.115 64.74 466.295 64.08C467.475 63.42 468.805 63.09 470.285 63.09C471.725 63.09 472.995 63.4 474.095 64.02C475.195 64.64 476.055 65.5 476.675 66.6C477.315 67.7 477.635 68.96 477.635 70.38C477.635 70.64 477.615 70.92 477.575 71.22C477.555 71.5 477.505 71.83 477.425 72.21L464.855 72.24V69.09L475.475 69.06L473.495 70.38C473.475 69.54 473.345 68.85 473.105 68.31C472.865 67.75 472.505 67.33 472.025 67.05C471.565 66.75 470.995 66.6 470.315 66.6C469.595 66.6 468.965 66.77 468.425 67.11C467.905 67.43 467.495 67.89 467.195 68.49C466.915 69.09 466.775 69.82 466.775 70.68C466.775 71.54 466.925 72.28 467.225 72.9C467.545 73.5 467.985 73.97 468.545 74.31C469.125 74.63 469.805 74.79 470.585 74.79C471.305 74.79 471.955 74.67 472.535 74.43C473.115 74.17 473.625 73.79 474.065 73.29L476.585 75.81C475.865 76.65 474.995 77.28 473.975 77.7C472.955 78.12 471.835 78.33 470.615 78.33ZM488.25 78.3C487.27 78.3 486.37 78.11 485.55 77.73C484.73 77.35 484.06 76.83 483.54 76.17C483.02 75.49 482.72 74.72 482.64 73.86V67.71C482.72 66.85 483.02 66.07 483.54 65.37C484.06 64.67 484.73 64.12 485.55 63.72C486.37 63.32 487.27 63.12 488.25 63.12C489.63 63.12 490.85 63.45 491.91 64.11C492.99 64.77 493.83 65.67 494.43 66.81C495.05 67.95 495.36 69.25 495.36 70.71C495.36 72.17 495.05 73.47 494.43 74.61C493.83 75.75 492.99 76.65 491.91 77.31C490.85 77.97 489.63 78.3 488.25 78.3ZM487.41 74.16C488.07 74.16 488.64 74.01 489.12 73.71C489.62 73.41 490.01 73 490.29 72.48C490.57 71.96 490.71 71.37 490.71 70.71C490.71 70.03 490.57 69.43 490.29 68.91C490.01 68.39 489.62 67.99 489.12 67.71C488.64 67.41 488.08 67.26 487.44 67.26C486.8 67.26 486.23 67.41 485.73 67.71C485.25 67.99 484.87 68.39 484.59 68.91C484.31 69.43 484.17 70.03 484.17 70.71C484.17 71.37 484.3 71.96 484.56 72.48C484.84 73 485.23 73.41 485.73 73.71C486.23 74.01 486.79 74.16 487.41 74.16ZM479.85 84.15V63.42H484.44V67.17L483.69 70.71L484.38 74.25V84.15H479.85ZM497.692 78V63.42H502.282V78H497.692ZM502.282 69.99L500.362 68.49C500.742 66.79 501.382 65.47 502.282 64.53C503.182 63.59 504.432 63.12 506.032 63.12C506.732 63.12 507.342 63.23 507.862 63.45C508.402 63.65 508.872 63.97 509.272 64.41L506.542 67.86C506.342 67.64 506.092 67.47 505.792 67.35C505.492 67.23 505.152 67.17 504.772 67.17C504.012 67.17 503.402 67.41 502.942 67.89C502.502 68.35 502.282 69.05 502.282 69.99ZM517.285 78.33C515.705 78.33 514.295 78.01 513.055 77.37C511.835 76.71 510.875 75.8 510.175 74.64C509.475 73.48 509.125 72.17 509.125 70.71C509.125 69.25 509.465 67.95 510.145 66.81C510.845 65.65 511.785 64.74 512.965 64.08C514.145 63.42 515.475 63.09 516.955 63.09C518.395 63.09 519.665 63.4 520.765 64.02C521.865 64.64 522.725 65.5 523.345 66.6C523.985 67.7 524.305 68.96 524.305 70.38C524.305 70.64 524.285 70.92 524.245 71.22C524.225 71.5 524.175 71.83 524.095 72.21L511.525 72.24V69.09L522.145 69.06L520.165 70.38C520.145 69.54 520.015 68.85 519.775 68.31C519.535 67.75 519.175 67.33 518.695 67.05C518.235 66.75 517.665 66.6 516.985 66.6C516.265 66.6 515.635 66.77 515.095 67.11C514.575 67.43 514.165 67.89 513.865 68.49C513.585 69.09 513.445 69.82 513.445 70.68C513.445 71.54 513.595 72.28 513.895 72.9C514.215 73.5 514.655 73.97 515.215 74.31C515.795 74.63 516.475 74.79 517.255 74.79C517.975 74.79 518.625 74.67 519.205 74.43C519.785 74.17 520.295 73.79 520.735 73.29L523.255 75.81C522.535 76.65 521.665 77.28 520.645 77.7C519.625 78.12 518.505 78.33 517.285 78.33ZM531.83 78.36C530.97 78.36 530.12 78.25 529.28 78.03C528.46 77.81 527.69 77.5 526.97 77.1C526.27 76.68 525.67 76.2 525.17 75.66L527.78 73.02C528.26 73.54 528.83 73.95 529.49 74.25C530.15 74.53 530.87 74.67 531.65 74.67C532.19 74.67 532.6 74.59 532.88 74.43C533.18 74.27 533.33 74.05 533.33 73.77C533.33 73.41 533.15 73.14 532.79 72.96C532.45 72.76 532.01 72.59 531.47 72.45C530.93 72.29 530.36 72.12 529.76 71.94C529.16 71.76 528.59 71.51 528.05 71.19C527.51 70.87 527.07 70.43 526.73 69.87C526.39 69.29 526.22 68.56 526.22 67.68C526.22 66.74 526.46 65.93 526.94 65.25C527.42 64.55 528.1 64 528.98 63.6C529.86 63.2 530.89 63 532.07 63C533.31 63 534.45 63.22 535.49 63.66C536.55 64.08 537.41 64.71 538.07 65.55L535.46 68.19C535 67.65 534.48 67.27 533.9 67.05C533.34 66.83 532.79 66.72 532.25 66.72C531.73 66.72 531.34 66.8 531.08 66.96C530.82 67.1 530.69 67.31 530.69 67.59C530.69 67.89 530.86 68.13 531.2 68.31C531.54 68.49 531.98 68.65 532.52 68.79C533.06 68.93 533.63 69.1 534.23 69.3C534.83 69.5 535.4 69.77 535.94 70.11C536.48 70.45 536.92 70.91 537.26 71.49C537.6 72.05 537.77 72.79 537.77 73.71C537.77 75.13 537.23 76.26 536.15 77.1C535.09 77.94 533.65 78.36 531.83 78.36ZM547.461 78.33C545.881 78.33 544.471 78.01 543.231 77.37C542.011 76.71 541.051 75.8 540.351 74.64C539.651 73.48 539.301 72.17 539.301 70.71C539.301 69.25 539.641 67.95 540.321 66.81C541.021 65.65 541.961 64.74 543.141 64.08C544.321 63.42 545.651 63.09 547.131 63.09C548.571 63.09 549.841 63.4 550.941 64.02C552.041 64.64 552.901 65.5 553.521 66.6C554.161 67.7 554.481 68.96 554.481 70.38C554.481 70.64 554.461 70.92 554.421 71.22C554.401 71.5 554.351 71.83 554.271 72.21L541.701 72.24V69.09L552.321 69.06L550.341 70.38C550.321 69.54 550.191 68.85 549.951 68.31C549.711 67.75 549.351 67.33 548.871 67.05C548.411 66.75 547.841 66.6 547.161 66.6C546.441 66.6 545.811 66.77 545.271 67.11C544.751 67.43 544.341 67.89 544.041 68.49C543.761 69.09 543.621 69.82 543.621 70.68C543.621 71.54 543.771 72.28 544.071 72.9C544.391 73.5 544.831 73.97 545.391 74.31C545.971 74.63 546.651 74.79 547.431 74.79C548.151 74.79 548.801 74.67 549.381 74.43C549.961 74.17 550.471 73.79 550.911 73.29L553.431 75.81C552.711 76.65 551.841 77.28 550.821 77.7C549.801 78.12 548.681 78.33 547.461 78.33ZM566.326 78V69.69C566.326 68.93 566.086 68.32 565.606 67.86C565.146 67.38 564.556 67.14 563.836 67.14C563.336 67.14 562.896 67.25 562.516 67.47C562.136 67.67 561.836 67.97 561.616 68.37C561.396 68.75 561.286 69.19 561.286 69.69L559.516 68.82C559.516 67.68 559.766 66.68 560.266 65.82C560.766 64.96 561.456 64.3 562.336 63.84C563.236 63.36 564.246 63.12 565.366 63.12C566.446 63.12 567.396 63.38 568.216 63.9C569.056 64.4 569.716 65.07 570.196 65.91C570.676 66.75 570.916 67.67 570.916 68.67V78H566.326ZM556.696 78V63.42H561.286V78H556.696ZM575.758 78V57.39H580.348V78H575.758ZM572.458 67.32V63.42H583.648V67.32H572.458ZM591.468 78.3C590.128 78.3 588.928 77.97 587.868 77.31C586.828 76.65 585.998 75.75 585.378 74.61C584.778 73.47 584.478 72.17 584.478 70.71C584.478 69.25 584.778 67.95 585.378 66.81C585.998 65.67 586.828 64.77 587.868 64.11C588.928 63.45 590.128 63.12 591.468 63.12C592.448 63.12 593.328 63.31 594.108 63.69C594.908 64.07 595.558 64.6 596.058 65.28C596.558 65.94 596.838 66.7 596.898 67.56V73.86C596.838 74.72 596.558 75.49 596.058 76.17C595.578 76.83 594.938 77.35 594.138 77.73C593.338 78.11 592.448 78.3 591.468 78.3ZM592.398 74.16C593.378 74.16 594.168 73.84 594.768 73.2C595.368 72.54 595.668 71.71 595.668 70.71C595.668 70.03 595.528 69.43 595.248 68.91C594.988 68.39 594.608 67.99 594.108 67.71C593.628 67.41 593.068 67.26 592.428 67.26C591.788 67.26 591.218 67.41 590.718 67.71C590.238 67.99 589.848 68.39 589.548 68.91C589.268 69.43 589.128 70.03 589.128 70.71C589.128 71.37 589.268 71.96 589.548 72.48C589.828 73 590.218 73.41 590.718 73.71C591.218 74.01 591.778 74.16 592.398 74.16ZM595.488 78V74.07L596.178 70.53L595.488 66.99V63.42H599.988V78H595.488ZM605.29 78V57.39H609.88V78H605.29ZM601.99 67.32V63.42H613.18V67.32H601.99ZM615.202 78V63.42H619.792V78H615.202ZM617.512 61.41C616.792 61.41 616.192 61.17 615.712 60.69C615.252 60.19 615.022 59.59 615.022 58.89C615.022 58.17 615.252 57.57 615.712 57.09C616.192 56.61 616.792 56.37 617.512 56.37C618.232 56.37 618.822 56.61 619.282 57.09C619.742 57.57 619.972 58.17 619.972 58.89C619.972 59.59 619.742 60.19 619.282 60.69C618.822 61.17 618.232 61.41 617.512 61.41ZM630.044 78.33C628.544 78.33 627.184 78 625.964 77.34C624.764 76.66 623.814 75.74 623.114 74.58C622.414 73.42 622.064 72.12 622.064 70.68C622.064 69.24 622.414 67.95 623.114 66.81C623.814 65.67 624.764 64.77 625.964 64.11C627.164 63.43 628.524 63.09 630.044 63.09C631.564 63.09 632.924 63.42 634.124 64.08C635.324 64.74 636.274 65.65 636.974 66.81C637.674 67.95 638.024 69.24 638.024 70.68C638.024 72.12 637.674 73.42 636.974 74.58C636.274 75.74 635.324 76.66 634.124 77.34C632.924 78 631.564 78.33 630.044 78.33ZM630.044 74.16C630.704 74.16 631.284 74.02 631.784 73.74C632.284 73.44 632.664 73.03 632.924 72.51C633.204 71.97 633.344 71.36 633.344 70.68C633.344 70 633.204 69.41 632.924 68.91C632.644 68.39 632.254 67.99 631.754 67.71C631.274 67.41 630.704 67.26 630.044 67.26C629.404 67.26 628.834 67.41 628.334 67.71C627.834 67.99 627.444 68.39 627.164 68.91C626.884 69.43 626.744 70.03 626.744 70.71C626.744 71.37 626.884 71.97 627.164 72.51C627.444 73.03 627.834 73.44 628.334 73.74C628.834 74.02 629.404 74.16 630.044 74.16ZM649.939 78V69.69C649.939 68.93 649.699 68.32 649.219 67.86C648.759 67.38 648.169 67.14 647.449 67.14C646.949 67.14 646.509 67.25 646.129 67.47C645.749 67.67 645.449 67.97 645.229 68.37C645.009 68.75 644.899 69.19 644.899 69.69L643.129 68.82C643.129 67.68 643.379 66.68 643.879 65.82C644.379 64.96 645.069 64.3 645.949 63.84C646.849 63.36 647.859 63.12 648.979 63.12C650.059 63.12 651.009 63.38 651.829 63.9C652.669 64.4 653.329 65.07 653.809 65.91C654.289 66.75 654.529 67.67 654.529 68.67V78H649.939ZM640.309 78V63.42H644.899V78H640.309ZM662.787 78.36C661.927 78.36 661.077 78.25 660.237 78.03C659.417 77.81 658.647 77.5 657.927 77.1C657.227 76.68 656.627 76.2 656.127 75.66L658.737 73.02C659.217 73.54 659.787 73.95 660.447 74.25C661.107 74.53 661.827 74.67 662.607 74.67C663.147 74.67 663.557 74.59 663.837 74.43C664.137 74.27 664.287 74.05 664.287 73.77C664.287 73.41 664.107 73.14 663.747 72.96C663.407 72.76 662.967 72.59 662.427 72.45C661.887 72.29 661.317 72.12 660.717 71.94C660.117 71.76 659.547 71.51 659.007 71.19C658.467 70.87 658.027 70.43 657.687 69.87C657.347 69.29 657.177 68.56 657.177 67.68C657.177 66.74 657.417 65.93 657.897 65.25C658.377 64.55 659.057 64 659.937 63.6C660.817 63.2 661.847 63 663.027 63C664.267 63 665.407 63.22 666.447 63.66C667.507 64.08 668.367 64.71 669.027 65.55L666.417 68.19C665.957 67.65 665.437 67.27 664.857 67.05C664.297 66.83 663.747 66.72 663.207 66.72C662.687 66.72 662.297 66.8 662.037 66.96C661.777 67.1 661.647 67.31 661.647 67.59C661.647 67.89 661.817 68.13 662.157 68.31C662.497 68.49 662.937 68.65 663.477 68.79C664.017 68.93 664.587 69.1 665.187 69.3C665.787 69.5 666.357 69.77 666.897 70.11C667.437 70.45 667.877 70.91 668.217 71.49C668.557 72.05 668.727 72.79 668.727 73.71C668.727 75.13 668.187 76.26 667.107 77.1C666.047 77.94 664.607 78.36 662.787 78.36Z" fill="black"/>
<g filter="url(#filter0_d_0_1)">
<path d="M207.293 316.852C207.764 316.563 207.911 315.947 207.622 315.477L202.911 307.808C202.621 307.338 202.006 307.191 201.535 307.48C201.064 307.769 200.917 308.385 201.206 308.855L205.394 315.671L198.578 319.859C198.107 320.148 197.96 320.764 198.249 321.235C198.539 321.705 199.154 321.852 199.625 321.563L207.293 316.852ZM176.77 282.977C176.525 293.856 178.322 301.128 183.171 306.316C187.975 311.455 195.616 314.364 206.537 316.973L207.002 315.027C196.094 312.422 188.992 309.615 184.632 304.95C180.316 300.333 178.529 293.712 178.77 283.023L176.77 282.977Z" fill="black"/>
</g>
<g filter="url(#filter1_d_0_1)">
<path d="M523.476 316.851C523.006 316.562 522.859 315.946 523.148 315.476L527.86 307.808C528.149 307.337 528.764 307.19 529.235 307.479C529.706 307.768 529.853 308.384 529.564 308.855L525.376 315.671L532.192 319.859C532.662 320.148 532.809 320.764 532.52 321.234C532.231 321.705 531.615 321.852 531.145 321.563L523.476 316.851ZM554.001 282.977C554.245 293.856 552.448 301.128 547.599 306.315C542.795 311.455 535.154 314.363 524.232 316.972L523.768 315.027C534.676 312.421 541.778 309.614 546.138 304.95C550.454 300.333 552.242 293.712 552.001 283.023L554.001 282.977Z" fill="black"/>
</g>
<defs>
<filter id="filter0_d_0_1" x="172.748" y="282.977" width="39.0218" height="46.734" filterUnits="userSpaceOnUse" color-interpolation-filters="sRGB">
<feFlood flood-opacity="0" result="BackgroundImageFix"/>
<feColorMatrix in="SourceAlpha" type="matrix" values="0 0 0 0 0 0 0 0 0 0 0 0 0 0 0 0 0 0 127 0" result="hardAlpha"/>
<feOffset dy="4"/>
<feGaussianBlur stdDeviation="2"/>
<feComposite in2="hardAlpha" operator="out"/>
<feColorMatrix type="matrix" values="0 0 0 0 0 0 0 0 0 0 0 0 0 0 0 0 0 0 0.25 0"/>
<feBlend mode="normal" in2="BackgroundImageFix" result="effect1_dropShadow_0_1"/>
<feBlend mode="normal" in="SourceGraphic" in2="effect1_dropShadow_0_1" result="shape"/>
</filter>
<filter id="filter1_d_0_1" x="519" y="282.977" width="39.0225" height="46.7335" filterUnits="userSpaceOnUse" color-interpolation-filters="sRGB">
<feFlood flood-opacity="0" result="BackgroundImageFix"/>
<feColorMatrix in="SourceAlpha" type="matrix" values="0 0 0 0 0 0 0 0 0 0 0 0 0 0 0 0 0 0 127 0" result="hardAlpha"/>
<feOffset dy="4"/>
<feGaussianBlur stdDeviation="2"/>
<feComposite in2="hardAlpha" operator="out"/>
<feColorMatrix type="matrix" values="0 0 0 0 0 0 0 0 0 0 0 0 0 0 0 0 0 0 0.25 0"/>
<feBlend mode="normal" in2="BackgroundImageFix" result="effect1_dropShadow_0_1"/>
<feBlend mode="normal" in="SourceGraphic" in2="effect1_dropShadow_0_1" result="shape"/>
</filter>
<linearGradient id="paint0_linear_0_1" x1="323" y1="393" x2="323" y2="419" gradientUnits="userSpaceOnUse">
<stop stop-color="#3100A2"/>
<stop offset="1" stop-color="#B266FF"/>
</linearGradient>
<linearGradient id="paint1_linear_0_1" x1="412" y1="393" x2="412" y2="419" gradientUnits="userSpaceOnUse">
<stop stop-color="#3100A2"/>
<stop offset="1" stop-color="#B266FF"/>
</linearGradient>
</defs>
</svg>
