<svg width="706" height="480" viewBox="0 0 706 480" fill="none" xmlns="http://www.w3.org/2000/svg">
<rect width="706" height="480" fill="#F5F5F5"/>
<line x1="13.265" y1="123.576" x2="85.265" y2="168.576" stroke="#BFBFBF"/>
<line x1="13.1923" y1="123.538" x2="121.192" y2="168.538" stroke="#BFBFBF"/>
<line x1="49.2692" y1="122.579" x2="121.269" y2="168.579" stroke="#BFBFBF"/>
<line x1="85.3904" y1="123.688" x2="121.39" y2="168.688" stroke="#BFBFBF"/>
<line x1="121.5" y1="123" x2="121.5" y2="169" stroke="#BFBFBF"/>
<line x1="121.23" y1="122.556" x2="210.23" y2="168.556" stroke="#BFBFBF"/>
<line x1="210.5" y1="124" x2="210.5" y2="169" stroke="#BFBFBF"/>
<line x1="246.394" y1="123.308" x2="210.394" y2="169.308" stroke="#BFBFBF"/>
<line x1="282.269" y1="123.421" x2="210.269" y2="169.421" stroke="#BFBFBF"/>
<line x1="318.196" y1="123.46" x2="210.196" y2="169.46" stroke="#BFBFBF"/>
<line x1="318.269" y1="123.421" x2="246.269" y2="169.421" stroke="#BFBFBF"/>
<line x1="282.394" y1="123.308" x2="246.394" y2="169.308" stroke="#BFBFBF"/>
<line x1="246.5" y1="123" x2="246.5" y2="169" stroke="#BFBFBF"/>
<line x1="210.394" y1="122.692" x2="246.394" y2="168.692" stroke="#BFBFBF"/>
<line x1="121.173" y1="122.531" x2="246.173" y2="168.531" stroke="#BFBFBF"/>
<line x1="83.1358" y1="122.519" x2="246.136" y2="168.519" stroke="#BFBFBF"/>
<line x1="49.1137" y1="122.513" x2="246.114" y2="168.513" stroke="#BFBFBF"/>
<line x1="13.0968" y1="122.509" x2="246.097" y2="168.509" stroke="#BFBFBF"/>
<line x1="85.1727" y1="122.531" x2="210.173" y2="168.531" stroke="#BFBFBF"/>
<line x1="49.1374" y1="122.519" x2="210.137" y2="168.519" stroke="#BFBFBF"/>
<line x1="13.1137" y1="122.513" x2="210.114" y2="168.513" stroke="#BFBFBF"/>
<line x1="210.23" y1="123.444" x2="121.23" y2="169.444" stroke="#BFBFBF"/>
<line x1="246.173" y1="123.469" x2="121.173" y2="169.469" stroke="#BFBFBF"/>
<line x1="282.137" y1="123.481" x2="121.137" y2="169.481" stroke="#BFBFBF"/>
<line x1="318.114" y1="123.487" x2="121.114" y2="169.487" stroke="#BFBFBF"/>
<line x1="49.3904" y1="123.688" x2="85.3904" y2="168.688" stroke="#BFBFBF"/>
<line x1="85.5" y1="124" x2="85.5" y2="169" stroke="#BFBFBF"/>
<line x1="121.39" y1="124.312" x2="85.3904" y2="169.312" stroke="#BFBFBF"/>
<line x1="210.173" y1="123.469" x2="85.1727" y2="169.469" stroke="#BFBFBF"/>
<line x1="246.137" y1="123.481" x2="85.1374" y2="169.481" stroke="#BFBFBF"/>
<line x1="282.114" y1="123.487" x2="85.1137" y2="169.487" stroke="#BFBFBF"/>
<line x1="318.097" y1="123.491" x2="85.0968" y2="169.491" stroke="#BFBFBF"/>
<line x1="85.3904" y1="192.688" x2="121.39" y2="237.688" stroke="#BFBFBF"/>
<line x1="236.261" y1="337.574" x2="311.261" y2="383.574" stroke="#BFBFBF"/>
<line x1="311.354" y1="408.646" x2="356.354" y2="453.646" stroke="#BFBFBF"/>
<line x1="400.361" y1="408.346" x2="356.361" y2="454.346" stroke="#BFBFBF"/>
<line x1="325.478" y1="338.146" x2="311.478" y2="384.146" stroke="#BFBFBF"/>
<line x1="381.275" y1="338.418" x2="311.275" y2="384.418" stroke="#BFBFBF"/>
<line x1="470.139" y1="338.48" x2="311.139" y2="384.48" stroke="#BFBFBF"/>
<line x1="470.275" y1="338.418" x2="400.275" y2="384.418" stroke="#BFBFBF"/>
<line x1="381.462" y1="337.809" x2="400.462" y2="383.809" stroke="#BFBFBF"/>
<line x1="325.261" y1="337.574" x2="400.261" y2="383.574" stroke="#BFBFBF"/>
<line x1="236.135" y1="337.519" x2="400.135" y2="383.519" stroke="#BFBFBF"/>
<line x1="121.5" y1="193" x2="121.5" y2="238" stroke="#BFBFBF"/>
<line x1="210.226" y1="193.446" x2="121.226" y2="238.446" stroke="#BFBFBF"/>
<line x1="246.169" y1="193.47" x2="121.169" y2="238.47" stroke="#BFBFBF"/>
<line x1="246.4" y1="193.3" x2="210.4" y2="241.3" stroke="#BFBFBF"/>
<line x1="210.5" y1="193" x2="210.5" y2="241" stroke="#BFBFBF"/>
<line x1="121.237" y1="192.56" x2="210.237" y2="240.56" stroke="#BFBFBF"/>
<line x1="85.1792" y1="192.533" x2="210.179" y2="240.533" stroke="#BFBFBF"/>
<circle cx="49" cy="111" r="13" fill="#3100A2"/>
<circle cx="85" cy="111" r="13" fill="#3100A2"/>
<circle cx="121" cy="111" r="13" fill="#3100A2"/>
<circle cx="49" cy="111" r="13" fill="#3100A2"/>
<circle cx="13" cy="111" r="13" fill="#3100A2"/>
<circle cx="85" cy="111" r="13" fill="#3100A2"/>
<circle cx="121" cy="111" r="13" fill="#3100A2"/>
<circle cx="246" cy="111" r="13" fill="#3100A2"/>
<circle cx="282" cy="111" r="13" fill="#3100A2"/>
<circle cx="318" cy="111" r="13" fill="#3100A2"/>
<circle cx="246" cy="111" r="13" fill="#3100A2"/>
<circle cx="210" cy="111" r="13" fill="#3100A2"/>
<circle cx="282" cy="111" r="13" fill="#3100A2"/>
<circle cx="318" cy="111" r="13" fill="#3100A2"/>
<circle cx="150.5" cy="111.5" r="2.5" fill="#565656"/>
<circle cx="165.5" cy="111.5" r="2.5" fill="#565656"/>
<circle cx="180.5" cy="111.5" r="2.5" fill="#565656"/>
<circle cx="180.5" cy="111.5" r="2.5" fill="#565656"/>
<circle cx="85" cy="181" r="13" fill="#3100A2"/>
<circle cx="121" cy="181" r="13" fill="#3100A2"/>
<circle cx="85" cy="181" r="13" fill="#3100A2"/>
<circle cx="121" cy="181" r="13" fill="#3100A2"/>
<circle cx="246" cy="181" r="13" fill="#3100A2"/>
<circle cx="246" cy="181" r="13" fill="#3100A2"/>
<circle cx="210" cy="181" r="13" fill="#3100A2"/>
<circle cx="150.5" cy="181.5" r="2.5" fill="#565656"/>
<circle cx="165.5" cy="181.5" r="2.5" fill="#565656"/>
<circle cx="180.5" cy="181.5" r="2.5" fill="#565656"/>
<circle cx="180.5" cy="181.5" r="2.5" fill="#565656"/>
<circle cx="121" cy="251" r="13" fill="#3100A2"/>
<circle cx="121" cy="251" r="13" fill="#3100A2"/>
<circle cx="210" cy="251" r="13" fill="#3100A2"/>
<circle cx="150.5" cy="251.5" r="2.5" fill="#565656"/>
<circle cx="165.5" cy="251.5" r="2.5" fill="#565656"/>
<circle cx="180.5" cy="251.5" r="2.5" fill="#565656"/>
<circle cx="180.5" cy="251.5" r="2.5" fill="#565656"/>
<circle cx="236" cy="326" r="13" fill="#3100A2"/>
<circle cx="236" cy="326" r="13" fill="#3100A2"/>
<circle cx="325" cy="326" r="13" fill="#3100A2"/>
<circle cx="325" cy="326" r="13" fill="#3100A2"/>
<circle cx="265.5" cy="326.5" r="2.5" fill="#565656"/>
<circle cx="280.5" cy="326.5" r="2.5" fill="#565656"/>
<circle cx="295.5" cy="326.5" r="2.5" fill="#565656"/>
<circle cx="295.5" cy="326.5" r="2.5" fill="#565656"/>
<line x1="388.265" y1="123.576" x2="460.265" y2="168.576" stroke="#BFBFBF"/>
<line x1="388.192" y1="123.538" x2="496.192" y2="168.538" stroke="#BFBFBF"/>
<line x1="424.269" y1="122.579" x2="496.269" y2="168.579" stroke="#BFBFBF"/>
<line x1="460.39" y1="123.688" x2="496.39" y2="168.688" stroke="#BFBFBF"/>
<line x1="496.5" y1="123" x2="496.5" y2="169" stroke="#BFBFBF"/>
<line x1="496.23" y1="122.556" x2="585.23" y2="168.556" stroke="#BFBFBF"/>
<line x1="585.5" y1="124" x2="585.5" y2="169" stroke="#BFBFBF"/>
<line x1="621.394" y1="123.308" x2="585.394" y2="169.308" stroke="#BFBFBF"/>
<line x1="657.269" y1="123.421" x2="585.269" y2="169.421" stroke="#BFBFBF"/>
<line x1="693.196" y1="123.46" x2="585.196" y2="169.46" stroke="#BFBFBF"/>
<line x1="693.269" y1="123.421" x2="621.269" y2="169.421" stroke="#BFBFBF"/>
<line x1="657.394" y1="123.308" x2="621.394" y2="169.308" stroke="#BFBFBF"/>
<line x1="621.5" y1="123" x2="621.5" y2="169" stroke="#BFBFBF"/>
<line x1="585.394" y1="122.692" x2="621.394" y2="168.692" stroke="#BFBFBF"/>
<line x1="496.173" y1="122.531" x2="621.173" y2="168.531" stroke="#BFBFBF"/>
<line x1="458.136" y1="122.519" x2="621.136" y2="168.519" stroke="#BFBFBF"/>
<line x1="424.114" y1="122.513" x2="621.114" y2="168.513" stroke="#BFBFBF"/>
<line x1="388.097" y1="122.509" x2="621.097" y2="168.509" stroke="#BFBFBF"/>
<line x1="460.173" y1="122.531" x2="585.173" y2="168.531" stroke="#BFBFBF"/>
<line x1="424.137" y1="122.519" x2="585.137" y2="168.519" stroke="#BFBFBF"/>
<line x1="388.114" y1="122.513" x2="585.114" y2="168.513" stroke="#BFBFBF"/>
<line x1="585.23" y1="123.444" x2="496.23" y2="169.444" stroke="#BFBFBF"/>
<line x1="621.173" y1="123.469" x2="496.173" y2="169.469" stroke="#BFBFBF"/>
<line x1="657.137" y1="123.481" x2="496.137" y2="169.481" stroke="#BFBFBF"/>
<line x1="693.114" y1="123.487" x2="496.114" y2="169.487" stroke="#BFBFBF"/>
<line x1="424.39" y1="123.688" x2="460.39" y2="168.688" stroke="#BFBFBF"/>
<line x1="460.5" y1="124" x2="460.5" y2="169" stroke="#BFBFBF"/>
<line x1="496.39" y1="124.312" x2="460.39" y2="169.312" stroke="#BFBFBF"/>
<line x1="585.173" y1="123.469" x2="460.173" y2="169.469" stroke="#BFBFBF"/>
<line x1="621.137" y1="123.481" x2="460.137" y2="169.481" stroke="#BFBFBF"/>
<line x1="657.114" y1="123.487" x2="460.114" y2="169.487" stroke="#BFBFBF"/>
<line x1="693.097" y1="123.491" x2="460.097" y2="169.491" stroke="#BFBFBF"/>
<line x1="460.39" y1="192.688" x2="496.39" y2="237.688" stroke="#BFBFBF"/>
<line x1="496.5" y1="193" x2="496.5" y2="238" stroke="#BFBFBF"/>
<line x1="585.226" y1="193.446" x2="496.226" y2="238.446" stroke="#BFBFBF"/>
<line x1="621.169" y1="193.47" x2="496.169" y2="238.47" stroke="#BFBFBF"/>
<line x1="621.4" y1="193.3" x2="585.4" y2="241.3" stroke="#BFBFBF"/>
<line x1="585.5" y1="193" x2="585.5" y2="241" stroke="#BFBFBF"/>
<line x1="496.237" y1="192.56" x2="585.237" y2="240.56" stroke="#BFBFBF"/>
<line x1="460.179" y1="192.533" x2="585.179" y2="240.533" stroke="#BFBFBF"/>
<circle cx="424" cy="111" r="13" fill="#B266FF"/>
<circle cx="460" cy="111" r="13" fill="#B266FF"/>
<circle cx="496" cy="111" r="13" fill="#B266FF"/>
<circle cx="424" cy="111" r="13" fill="#B266FF"/>
<circle cx="388" cy="111" r="13" fill="#B266FF"/>
<circle cx="460" cy="111" r="13" fill="#B266FF"/>
<circle cx="496" cy="111" r="13" fill="#B266FF"/>
<circle cx="621" cy="111" r="13" fill="#B266FF"/>
<circle cx="657" cy="111" r="13" fill="#B266FF"/>
<circle cx="693" cy="111" r="13" fill="#B266FF"/>
<circle cx="621" cy="111" r="13" fill="#B266FF"/>
<circle cx="585" cy="111" r="13" fill="#B266FF"/>
<circle cx="657" cy="111" r="13" fill="#B266FF"/>
<circle cx="693" cy="111" r="13" fill="#B266FF"/>
<circle cx="525.5" cy="111.5" r="2.5" fill="#565656"/>
<circle cx="540.5" cy="111.5" r="2.5" fill="#565656"/>
<circle cx="555.5" cy="111.5" r="2.5" fill="#565656"/>
<circle cx="555.5" cy="111.5" r="2.5" fill="#565656"/>
<circle cx="460" cy="181" r="13" fill="#B266FF"/>
<circle cx="496" cy="181" r="13" fill="#B266FF"/>
<circle cx="460" cy="181" r="13" fill="#B266FF"/>
<circle cx="496" cy="181" r="13" fill="#B266FF"/>
<circle cx="621" cy="181" r="13" fill="#B266FF"/>
<circle cx="621" cy="181" r="13" fill="#B266FF"/>
<circle cx="585" cy="181" r="13" fill="#B266FF"/>
<circle cx="525.5" cy="181.5" r="2.5" fill="#565656"/>
<circle cx="540.5" cy="181.5" r="2.5" fill="#565656"/>
<circle cx="555.5" cy="181.5" r="2.5" fill="#565656"/>
<circle cx="555.5" cy="181.5" r="2.5" fill="#565656"/>
<circle cx="496" cy="251" r="13" fill="#B266FF"/>
<circle cx="496" cy="251" r="13" fill="#B266FF"/>
<circle cx="585" cy="251" r="13" fill="#B266FF"/>
<circle cx="525.5" cy="251.5" r="2.5" fill="#565656"/>
<circle cx="540.5" cy="251.5" r="2.5" fill="#565656"/>
<circle cx="555.5" cy="251.5" r="2.5" fill="#565656"/>
<circle cx="555.5" cy="251.5" r="2.5" fill="#565656"/>
<circle cx="381" cy="326" r="13" fill="#B266FF"/>
<circle cx="381" cy="326" r="13" fill="#B266FF"/>
<circle cx="470" cy="326" r="13" fill="#B266FF"/>
<circle cx="410.5" cy="326.5" r="2.5" fill="#565656"/>
<circle cx="425.5" cy="326.5" r="2.5" fill="#565656"/>
<circle cx="440.5" cy="326.5" r="2.5" fill="#565656"/>
<circle cx="440.5" cy="326.5" r="2.5" fill="#565656"/>
<circle cx="311" cy="396" r="13" fill="#B266FF"/>
<circle cx="311" cy="396" r="13" fill="url(#paint0_linear_0_1)"/>
<circle cx="356" cy="467" r="13" fill="#565656"/>
<circle cx="400" cy="396" r="13" fill="url(#paint1_linear_0_1)"/>
<circle cx="340.5" cy="396.5" r="2.5" fill="#565656"/>
<circle cx="355.5" cy="396.5" r="2.5" fill="#565656"/>
<circle cx="370.5" cy="396.5" r="2.5" fill="#565656"/>
<circle cx="370.5" cy="396.5" r="2.5" fill="#565656"/>
<path d="M120.471 22.29V18.63H125.031C125.611 18.63 126.141 18.51 126.621 18.27C127.101 18.03 127.481 17.68 127.761 17.22C128.041 16.76 128.181 16.2 128.181 15.54C128.181 14.9 128.041 14.35 127.761 13.89C127.481 13.43 127.101 13.08 126.621 12.84C126.141 12.6 125.611 12.48 125.031 12.48H120.471V8.82H125.721C127.061 8.82 128.271 9.09 129.351 9.63C130.431 10.17 131.281 10.95 131.901 11.97C132.541 12.97 132.861 14.16 132.861 15.54C132.861 16.92 132.541 18.12 131.901 19.14C131.281 20.14 130.431 20.92 129.351 21.48C128.271 22.02 127.061 22.29 125.721 22.29H120.471ZM116.871 30V8.82H121.581V30H116.871ZM135.289 30V15.42H139.879V30H135.289ZM139.879 21.99L137.959 20.49C138.339 18.79 138.979 17.47 139.879 16.53C140.779 15.59 142.029 15.12 143.629 15.12C144.329 15.12 144.939 15.23 145.459 15.45C145.999 15.65 146.469 15.97 146.869 16.41L144.139 19.86C143.939 19.64 143.689 19.47 143.389 19.35C143.089 19.23 142.749 19.17 142.369 19.17C141.609 19.17 140.999 19.41 140.539 19.89C140.099 20.35 139.879 21.05 139.879 21.99ZM154.702 30.33C153.202 30.33 151.842 30 150.622 29.34C149.422 28.66 148.472 27.74 147.772 26.58C147.072 25.42 146.722 24.12 146.722 22.68C146.722 21.24 147.072 19.95 147.772 18.81C148.472 17.67 149.422 16.77 150.622 16.11C151.822 15.43 153.182 15.09 154.702 15.09C156.222 15.09 157.582 15.42 158.782 16.08C159.982 16.74 160.932 17.65 161.632 18.81C162.332 19.95 162.682 21.24 162.682 22.68C162.682 24.12 162.332 25.42 161.632 26.58C160.932 27.74 159.982 28.66 158.782 29.34C157.582 30 156.222 30.33 154.702 30.33ZM154.702 26.16C155.362 26.16 155.942 26.02 156.442 25.74C156.942 25.44 157.322 25.03 157.582 24.51C157.862 23.97 158.002 23.36 158.002 22.68C158.002 22 157.862 21.41 157.582 20.91C157.302 20.39 156.912 19.99 156.412 19.71C155.932 19.41 155.362 19.26 154.702 19.26C154.062 19.26 153.492 19.41 152.992 19.71C152.492 19.99 152.102 20.39 151.822 20.91C151.542 21.43 151.402 22.03 151.402 22.71C151.402 23.37 151.542 23.97 151.822 24.51C152.102 25.03 152.492 25.44 152.992 25.74C153.492 26.02 154.062 26.16 154.702 26.16ZM166.744 30V9.39H171.334V30H166.744ZM163.444 19.32V15.42H174.634V19.32H163.444ZM183.563 30.33C181.983 30.33 180.573 30.01 179.333 29.37C178.113 28.71 177.153 27.8 176.453 26.64C175.753 25.48 175.403 24.17 175.403 22.71C175.403 21.25 175.743 19.95 176.423 18.81C177.123 17.65 178.063 16.74 179.243 16.08C180.423 15.42 181.753 15.09 183.233 15.09C184.673 15.09 185.943 15.4 187.043 16.02C188.143 16.64 189.003 17.5 189.623 18.6C190.263 19.7 190.583 20.96 190.583 22.38C190.583 22.64 190.563 22.92 190.523 23.22C190.503 23.5 190.453 23.83 190.373 24.21L177.803 24.24V21.09L188.423 21.06L186.443 22.38C186.423 21.54 186.293 20.85 186.053 20.31C185.813 19.75 185.453 19.33 184.973 19.05C184.513 18.75 183.943 18.6 183.263 18.6C182.543 18.6 181.913 18.77 181.373 19.11C180.853 19.43 180.443 19.89 180.143 20.49C179.863 21.09 179.723 21.82 179.723 22.68C179.723 23.54 179.873 24.28 180.173 24.9C180.493 25.5 180.933 25.97 181.493 26.31C182.073 26.63 182.753 26.79 183.533 26.79C184.253 26.79 184.903 26.67 185.483 26.43C186.063 26.17 186.573 25.79 187.013 25.29L189.533 27.81C188.813 28.65 187.943 29.28 186.923 29.7C185.903 30.12 184.783 30.33 183.563 30.33ZM192.799 30V15.42H197.389V30H192.799ZM195.109 13.41C194.389 13.41 193.789 13.17 193.309 12.69C192.849 12.19 192.619 11.59 192.619 10.89C192.619 10.17 192.849 9.57 193.309 9.09C193.789 8.61 194.389 8.37 195.109 8.37C195.829 8.37 196.419 8.61 196.879 9.09C197.339 9.57 197.569 10.17 197.569 10.89C197.569 11.59 197.339 12.19 196.879 12.69C196.419 13.17 195.829 13.41 195.109 13.41ZM210.251 30V21.69C210.251 20.93 210.011 20.32 209.531 19.86C209.071 19.38 208.481 19.14 207.761 19.14C207.261 19.14 206.821 19.25 206.441 19.47C206.061 19.67 205.761 19.97 205.541 20.37C205.321 20.75 205.211 21.19 205.211 21.69L203.441 20.82C203.441 19.68 203.691 18.68 204.191 17.82C204.691 16.96 205.381 16.3 206.261 15.84C207.161 15.36 208.171 15.12 209.291 15.12C210.371 15.12 211.321 15.38 212.141 15.9C212.981 16.4 213.641 17.07 214.121 17.91C214.601 18.75 214.841 19.67 214.841 20.67V30H210.251ZM200.621 30V15.42H205.211V30H200.621ZM57.0223 68V53.42H61.6123V68H57.0223ZM61.6123 59.99L59.6923 58.49C60.0723 56.79 60.7123 55.47 61.6123 54.53C62.5123 53.59 63.7623 53.12 65.3623 53.12C66.0623 53.12 66.6723 53.23 67.1923 53.45C67.7323 53.65 68.2023 53.97 68.6023 54.41L65.8723 57.86C65.6723 57.64 65.4223 57.47 65.1223 57.35C64.8223 57.23 64.4823 57.17 64.1023 57.17C63.3423 57.17 62.7323 57.41 62.2723 57.89C61.8323 58.35 61.6123 59.05 61.6123 59.99ZM76.6149 68.33C75.0349 68.33 73.6249 68.01 72.3849 67.37C71.1649 66.71 70.2049 65.8 69.5049 64.64C68.8049 63.48 68.4549 62.17 68.4549 60.71C68.4549 59.25 68.7949 57.95 69.4749 56.81C70.1749 55.65 71.1149 54.74 72.2949 54.08C73.4749 53.42 74.8049 53.09 76.2849 53.09C77.7249 53.09 78.9949 53.4 80.0949 54.02C81.1949 54.64 82.0549 55.5 82.6749 56.6C83.3149 57.7 83.6349 58.96 83.6349 60.38C83.6349 60.64 83.6149 60.92 83.5749 61.22C83.5549 61.5 83.5049 61.83 83.4249 62.21L70.8549 62.24V59.09L81.4749 59.06L79.4949 60.38C79.4749 59.54 79.3449 58.85 79.1049 58.31C78.8649 57.75 78.5049 57.33 78.0249 57.05C77.5649 56.75 76.9949 56.6 76.3149 56.6C75.5949 56.6 74.9649 56.77 74.4249 57.11C73.9049 57.43 73.4949 57.89 73.1949 58.49C72.9149 59.09 72.7749 59.82 72.7749 60.68C72.7749 61.54 72.9249 62.28 73.2249 62.9C73.5449 63.5 73.9849 63.97 74.5449 64.31C75.1249 64.63 75.8049 64.79 76.5849 64.79C77.3049 64.79 77.9549 64.67 78.5349 64.43C79.1149 64.17 79.6249 63.79 80.0649 63.29L82.5849 65.81C81.8649 66.65 80.9949 67.28 79.9749 67.7C78.9549 68.12 77.8349 68.33 76.6149 68.33ZM94.2505 68.3C93.2705 68.3 92.3705 68.11 91.5505 67.73C90.7305 67.35 90.0605 66.83 89.5405 66.17C89.0205 65.49 88.7205 64.72 88.6405 63.86V57.71C88.7205 56.85 89.0205 56.07 89.5405 55.37C90.0605 54.67 90.7305 54.12 91.5505 53.72C92.3705 53.32 93.2705 53.12 94.2505 53.12C95.6305 53.12 96.8505 53.45 97.9105 54.11C98.9905 54.77 99.8305 55.67 100.43 56.81C101.05 57.95 101.36 59.25 101.36 60.71C101.36 62.17 101.05 63.47 100.43 64.61C99.8305 65.75 98.9905 66.65 97.9105 67.31C96.8505 67.97 95.6305 68.3 94.2505 68.3ZM93.4105 64.16C94.0705 64.16 94.6405 64.01 95.1205 63.71C95.6205 63.41 96.0105 63 96.2905 62.48C96.5705 61.96 96.7105 61.37 96.7105 60.71C96.7105 60.03 96.5705 59.43 96.2905 58.91C96.0105 58.39 95.6205 57.99 95.1205 57.71C94.6405 57.41 94.0805 57.26 93.4405 57.26C92.8005 57.26 92.2305 57.41 91.7305 57.71C91.2505 57.99 90.8705 58.39 90.5905 58.91C90.3105 59.43 90.1705 60.03 90.1705 60.71C90.1705 61.37 90.3005 61.96 90.5605 62.48C90.8405 63 91.2305 63.41 91.7305 63.71C92.2305 64.01 92.7905 64.16 93.4105 64.16ZM85.8505 74.15V53.42H90.4405V57.17L89.6905 60.71L90.3805 64.25V74.15H85.8505ZM103.692 68V53.42H108.282V68H103.692ZM108.282 59.99L106.362 58.49C106.742 56.79 107.382 55.47 108.282 54.53C109.182 53.59 110.432 53.12 112.032 53.12C112.732 53.12 113.342 53.23 113.862 53.45C114.402 53.65 114.872 53.97 115.272 54.41L112.542 57.86C112.342 57.64 112.092 57.47 111.792 57.35C111.492 57.23 111.152 57.17 110.772 57.17C110.012 57.17 109.402 57.41 108.942 57.89C108.502 58.35 108.282 59.05 108.282 59.99ZM123.285 68.33C121.705 68.33 120.295 68.01 119.055 67.37C117.835 66.71 116.875 65.8 116.175 64.64C115.475 63.48 115.125 62.17 115.125 60.71C115.125 59.25 115.465 57.95 116.145 56.81C116.845 55.65 117.785 54.74 118.965 54.08C120.145 53.42 121.475 53.09 122.955 53.09C124.395 53.09 125.665 53.4 126.765 54.02C127.865 54.64 128.725 55.5 129.345 56.6C129.985 57.7 130.305 58.96 130.305 60.38C130.305 60.64 130.285 60.92 130.245 61.22C130.225 61.5 130.175 61.83 130.095 62.21L117.525 62.24V59.09L128.145 59.06L126.165 60.38C126.145 59.54 126.015 58.85 125.775 58.31C125.535 57.75 125.175 57.33 124.695 57.05C124.235 56.75 123.665 56.6 122.985 56.6C122.265 56.6 121.635 56.77 121.095 57.11C120.575 57.43 120.165 57.89 119.865 58.49C119.585 59.09 119.445 59.82 119.445 60.68C119.445 61.54 119.595 62.28 119.895 62.9C120.215 63.5 120.655 63.97 121.215 64.31C121.795 64.63 122.475 64.79 123.255 64.79C123.975 64.79 124.625 64.67 125.205 64.43C125.785 64.17 126.295 63.79 126.735 63.29L129.255 65.81C128.535 66.65 127.665 67.28 126.645 67.7C125.625 68.12 124.505 68.33 123.285 68.33ZM137.83 68.36C136.97 68.36 136.12 68.25 135.28 68.03C134.46 67.81 133.69 67.5 132.97 67.1C132.27 66.68 131.67 66.2 131.17 65.66L133.78 63.02C134.26 63.54 134.83 63.95 135.49 64.25C136.15 64.53 136.87 64.67 137.65 64.67C138.19 64.67 138.6 64.59 138.88 64.43C139.18 64.27 139.33 64.05 139.33 63.77C139.33 63.41 139.15 63.14 138.79 62.96C138.45 62.76 138.01 62.59 137.47 62.45C136.93 62.29 136.36 62.12 135.76 61.94C135.16 61.76 134.59 61.51 134.05 61.19C133.51 60.87 133.07 60.43 132.73 59.87C132.39 59.29 132.22 58.56 132.22 57.68C132.22 56.74 132.46 55.93 132.94 55.25C133.42 54.55 134.1 54 134.98 53.6C135.86 53.2 136.89 53 138.07 53C139.31 53 140.45 53.22 141.49 53.66C142.55 54.08 143.41 54.71 144.07 55.55L141.46 58.19C141 57.65 140.48 57.27 139.9 57.05C139.34 56.83 138.79 56.72 138.25 56.72C137.73 56.72 137.34 56.8 137.08 56.96C136.82 57.1 136.69 57.31 136.69 57.59C136.69 57.89 136.86 58.13 137.2 58.31C137.54 58.49 137.98 58.65 138.52 58.79C139.06 58.93 139.63 59.1 140.23 59.3C140.83 59.5 141.4 59.77 141.94 60.11C142.48 60.45 142.92 60.91 143.26 61.49C143.6 62.05 143.77 62.79 143.77 63.71C143.77 65.13 143.23 66.26 142.15 67.1C141.09 67.94 139.65 68.36 137.83 68.36ZM153.461 68.33C151.881 68.33 150.471 68.01 149.231 67.37C148.011 66.71 147.051 65.8 146.351 64.64C145.651 63.48 145.301 62.17 145.301 60.71C145.301 59.25 145.641 57.95 146.321 56.81C147.021 55.65 147.961 54.74 149.141 54.08C150.321 53.42 151.651 53.09 153.131 53.09C154.571 53.09 155.841 53.4 156.941 54.02C158.041 54.64 158.901 55.5 159.521 56.6C160.161 57.7 160.481 58.96 160.481 60.38C160.481 60.64 160.461 60.92 160.421 61.22C160.401 61.5 160.351 61.83 160.271 62.21L147.701 62.24V59.09L158.321 59.06L156.341 60.38C156.321 59.54 156.191 58.85 155.951 58.31C155.711 57.75 155.351 57.33 154.871 57.05C154.411 56.75 153.841 56.6 153.161 56.6C152.441 56.6 151.811 56.77 151.271 57.11C150.751 57.43 150.341 57.89 150.041 58.49C149.761 59.09 149.621 59.82 149.621 60.68C149.621 61.54 149.771 62.28 150.071 62.9C150.391 63.5 150.831 63.97 151.391 64.31C151.971 64.63 152.651 64.79 153.431 64.79C154.151 64.79 154.801 64.67 155.381 64.43C155.961 64.17 156.471 63.79 156.911 63.29L159.431 65.81C158.711 66.65 157.841 67.28 156.821 67.7C155.801 68.12 154.681 68.33 153.461 68.33ZM172.326 68V59.69C172.326 58.93 172.086 58.32 171.606 57.86C171.146 57.38 170.556 57.14 169.836 57.14C169.336 57.14 168.896 57.25 168.516 57.47C168.136 57.67 167.836 57.97 167.616 58.37C167.396 58.75 167.286 59.19 167.286 59.69L165.516 58.82C165.516 57.68 165.766 56.68 166.266 55.82C166.766 54.96 167.456 54.3 168.336 53.84C169.236 53.36 170.246 53.12 171.366 53.12C172.446 53.12 173.396 53.38 174.216 53.9C175.056 54.4 175.716 55.07 176.196 55.91C176.676 56.75 176.916 57.67 176.916 58.67V68H172.326ZM162.696 68V53.42H167.286V68H162.696ZM181.758 68V47.39H186.348V68H181.758ZM178.458 57.32V53.42H189.648V57.32H178.458ZM197.468 68.3C196.128 68.3 194.928 67.97 193.868 67.31C192.828 66.65 191.998 65.75 191.378 64.61C190.778 63.47 190.478 62.17 190.478 60.71C190.478 59.25 190.778 57.95 191.378 56.81C191.998 55.67 192.828 54.77 193.868 54.11C194.928 53.45 196.128 53.12 197.468 53.12C198.448 53.12 199.328 53.31 200.108 53.69C200.908 54.07 201.558 54.6 202.058 55.28C202.558 55.94 202.838 56.7 202.898 57.56V63.86C202.838 64.72 202.558 65.49 202.058 66.17C201.578 66.83 200.938 67.35 200.138 67.73C199.338 68.11 198.448 68.3 197.468 68.3ZM198.398 64.16C199.378 64.16 200.168 63.84 200.768 63.2C201.368 62.54 201.668 61.71 201.668 60.71C201.668 60.03 201.528 59.43 201.248 58.91C200.988 58.39 200.608 57.99 200.108 57.71C199.628 57.41 199.068 57.26 198.428 57.26C197.788 57.26 197.218 57.41 196.718 57.71C196.238 57.99 195.848 58.39 195.548 58.91C195.268 59.43 195.128 60.03 195.128 60.71C195.128 61.37 195.268 61.96 195.548 62.48C195.828 63 196.218 63.41 196.718 63.71C197.218 64.01 197.778 64.16 198.398 64.16ZM201.488 68V64.07L202.178 60.53L201.488 56.99V53.42H205.988V68H201.488ZM211.29 68V47.39H215.88V68H211.29ZM207.99 57.32V53.42H219.18V57.32H207.99ZM221.202 68V53.42H225.792V68H221.202ZM223.512 51.41C222.792 51.41 222.192 51.17 221.712 50.69C221.252 50.19 221.022 49.59 221.022 48.89C221.022 48.17 221.252 47.57 221.712 47.09C222.192 46.61 222.792 46.37 223.512 46.37C224.232 46.37 224.822 46.61 225.282 47.09C225.742 47.57 225.972 48.17 225.972 48.89C225.972 49.59 225.742 50.19 225.282 50.69C224.822 51.17 224.232 51.41 223.512 51.41ZM236.044 68.33C234.544 68.33 233.184 68 231.964 67.34C230.764 66.66 229.814 65.74 229.114 64.58C228.414 63.42 228.064 62.12 228.064 60.68C228.064 59.24 228.414 57.95 229.114 56.81C229.814 55.67 230.764 54.77 231.964 54.11C233.164 53.43 234.524 53.09 236.044 53.09C237.564 53.09 238.924 53.42 240.124 54.08C241.324 54.74 242.274 55.65 242.974 56.81C243.674 57.95 244.024 59.24 244.024 60.68C244.024 62.12 243.674 63.42 242.974 64.58C242.274 65.74 241.324 66.66 240.124 67.34C238.924 68 237.564 68.33 236.044 68.33ZM236.044 64.16C236.704 64.16 237.284 64.02 237.784 63.74C238.284 63.44 238.664 63.03 238.924 62.51C239.204 61.97 239.344 61.36 239.344 60.68C239.344 60 239.204 59.41 238.924 58.91C238.644 58.39 238.254 57.99 237.754 57.71C237.274 57.41 236.704 57.26 236.044 57.26C235.404 57.26 234.834 57.41 234.334 57.71C233.834 57.99 233.444 58.39 233.164 58.91C232.884 59.43 232.744 60.03 232.744 60.71C232.744 61.37 232.884 61.97 233.164 62.51C233.444 63.03 233.834 63.44 234.334 63.74C234.834 64.02 235.404 64.16 236.044 64.16ZM255.939 68V59.69C255.939 58.93 255.699 58.32 255.219 57.86C254.759 57.38 254.169 57.14 253.449 57.14C252.949 57.14 252.509 57.25 252.129 57.47C251.749 57.67 251.449 57.97 251.229 58.37C251.009 58.75 250.899 59.19 250.899 59.69L249.129 58.82C249.129 57.68 249.379 56.68 249.879 55.82C250.379 54.96 251.069 54.3 251.949 53.84C252.849 53.36 253.859 53.12 254.979 53.12C256.059 53.12 257.009 53.38 257.829 53.9C258.669 54.4 259.329 55.07 259.809 55.91C260.289 56.75 260.529 57.67 260.529 58.67V68H255.939ZM246.309 68V53.42H250.899V68H246.309ZM268.787 68.36C267.927 68.36 267.077 68.25 266.237 68.03C265.417 67.81 264.647 67.5 263.927 67.1C263.227 66.68 262.627 66.2 262.127 65.66L264.737 63.02C265.217 63.54 265.787 63.95 266.447 64.25C267.107 64.53 267.827 64.67 268.607 64.67C269.147 64.67 269.557 64.59 269.837 64.43C270.137 64.27 270.287 64.05 270.287 63.77C270.287 63.41 270.107 63.14 269.747 62.96C269.407 62.76 268.967 62.59 268.427 62.45C267.887 62.29 267.317 62.12 266.717 61.94C266.117 61.76 265.547 61.51 265.007 61.19C264.467 60.87 264.027 60.43 263.687 59.87C263.347 59.29 263.177 58.56 263.177 57.68C263.177 56.74 263.417 55.93 263.897 55.25C264.377 54.55 265.057 54 265.937 53.6C266.817 53.2 267.847 53 269.027 53C270.267 53 271.407 53.22 272.447 53.66C273.507 54.08 274.367 54.71 275.027 55.55L272.417 58.19C271.957 57.65 271.437 57.27 270.857 57.05C270.297 56.83 269.747 56.72 269.207 56.72C268.687 56.72 268.297 56.8 268.037 56.96C267.777 57.1 267.647 57.31 267.647 57.59C267.647 57.89 267.817 58.13 268.157 58.31C268.497 58.49 268.937 58.65 269.477 58.79C270.017 58.93 270.587 59.1 271.187 59.3C271.787 59.5 272.357 59.77 272.897 60.11C273.437 60.45 273.877 60.91 274.217 61.49C274.557 62.05 274.727 62.79 274.727 63.71C274.727 65.13 274.187 66.26 273.107 67.1C272.047 67.94 270.607 68.36 268.787 68.36Z" fill="black"/>
<path d="M300.488 178.075L301.799 180.485L303.146 178.075H305.395L303.154 181.95L305.498 186H303.242L301.813 183.451L300.385 186H298.129L300.473 181.95L298.232 178.075H300.488ZM313.627 184.352V186H306.333V184.594L309.782 180.895C310.129 180.509 310.402 180.17 310.603 179.877C310.803 179.579 310.947 179.313 311.035 179.079C311.127 178.839 311.174 178.612 311.174 178.397C311.174 178.075 311.12 177.799 311.013 177.57C310.905 177.335 310.747 177.155 310.537 177.028C310.332 176.901 310.078 176.837 309.775 176.837C309.453 176.837 309.174 176.916 308.94 177.072C308.71 177.228 308.535 177.445 308.413 177.724C308.295 178.002 308.237 178.317 308.237 178.668H306.12C306.12 178.034 306.271 177.453 306.574 176.925C306.877 176.393 307.304 175.971 307.856 175.658C308.408 175.341 309.062 175.182 309.819 175.182C310.566 175.182 311.196 175.304 311.708 175.548C312.226 175.788 312.617 176.134 312.88 176.588C313.149 177.038 313.283 177.575 313.283 178.2C313.283 178.551 313.227 178.896 313.115 179.232C313.002 179.564 312.841 179.896 312.631 180.229C312.426 180.556 312.177 180.888 311.884 181.225C311.591 181.562 311.267 181.911 310.91 182.272L309.057 184.352H313.627ZM323.054 183.81C323.054 183.659 323.01 183.522 322.922 183.4C322.834 183.278 322.67 183.166 322.431 183.063C322.197 182.956 321.857 182.858 321.413 182.77C321.013 182.682 320.639 182.572 320.292 182.44C319.951 182.304 319.653 182.14 319.399 181.95C319.15 181.759 318.955 181.535 318.813 181.276C318.671 181.012 318.601 180.712 318.601 180.375C318.601 180.043 318.671 179.73 318.813 179.438C318.959 179.145 319.167 178.886 319.436 178.661C319.709 178.432 320.041 178.253 320.432 178.126C320.827 177.995 321.271 177.929 321.765 177.929C322.453 177.929 323.044 178.039 323.537 178.258C324.035 178.478 324.416 178.781 324.68 179.167C324.948 179.547 325.083 179.982 325.083 180.47H322.973C322.973 180.265 322.929 180.082 322.841 179.921C322.758 179.755 322.626 179.625 322.446 179.533C322.27 179.435 322.041 179.386 321.757 179.386C321.523 179.386 321.32 179.428 321.149 179.511C320.979 179.589 320.847 179.696 320.754 179.833C320.666 179.965 320.622 180.111 320.622 180.272C320.622 180.395 320.646 180.504 320.695 180.602C320.749 180.695 320.834 180.78 320.952 180.858C321.069 180.937 321.22 181.01 321.406 181.078C321.596 181.142 321.831 181.2 322.109 181.254C322.68 181.371 323.19 181.525 323.64 181.715C324.089 181.901 324.445 182.155 324.709 182.477C324.973 182.794 325.104 183.212 325.104 183.729C325.104 184.081 325.026 184.403 324.87 184.696C324.714 184.989 324.489 185.246 324.196 185.465C323.903 185.68 323.552 185.849 323.142 185.971C322.736 186.088 322.28 186.146 321.772 186.146C321.035 186.146 320.41 186.015 319.897 185.751C319.389 185.487 319.003 185.153 318.74 184.748C318.481 184.337 318.352 183.917 318.352 183.488H320.351C320.361 183.776 320.434 184.008 320.571 184.184C320.712 184.359 320.891 184.486 321.105 184.564C321.325 184.643 321.562 184.682 321.816 184.682C322.089 184.682 322.316 184.645 322.497 184.572C322.678 184.494 322.814 184.391 322.907 184.264C323.005 184.132 323.054 183.981 323.054 183.81ZM328.701 178.075V186H326.584V178.075H328.701ZM326.452 176.01C326.452 175.702 326.56 175.448 326.774 175.248C326.989 175.048 327.277 174.948 327.639 174.948C327.995 174.948 328.281 175.048 328.496 175.248C328.715 175.448 328.825 175.702 328.825 176.01C328.825 176.317 328.715 176.571 328.496 176.771C328.281 176.972 327.995 177.072 327.639 177.072C327.277 177.072 326.989 176.972 326.774 176.771C326.56 176.571 326.452 176.317 326.452 176.01ZM336.75 184.352V186H330.729V184.352H336.75ZM336.633 179.291L331.579 186H330.166V184.748L335.197 178.075H336.633V179.291ZM335.886 178.075V179.73H330.283V178.075H335.886ZM341.606 186.146C340.991 186.146 340.439 186.049 339.951 185.854C339.462 185.653 339.047 185.377 338.706 185.026C338.369 184.674 338.11 184.267 337.929 183.803C337.749 183.334 337.658 182.836 337.658 182.309V182.016C337.658 181.415 337.744 180.866 337.915 180.368C338.085 179.87 338.33 179.438 338.647 179.071C338.969 178.705 339.36 178.424 339.819 178.229C340.278 178.029 340.795 177.929 341.372 177.929C341.933 177.929 342.431 178.021 342.866 178.207C343.3 178.393 343.664 178.656 343.957 178.998C344.255 179.34 344.479 179.75 344.631 180.229C344.782 180.702 344.858 181.229 344.858 181.811V182.689H338.559V181.283H342.785V181.122C342.785 180.829 342.731 180.568 342.624 180.338C342.521 180.104 342.365 179.918 342.155 179.782C341.945 179.645 341.677 179.577 341.35 179.577C341.071 179.577 340.832 179.638 340.632 179.76C340.432 179.882 340.268 180.053 340.141 180.272C340.019 180.492 339.926 180.751 339.863 181.049C339.804 181.342 339.775 181.664 339.775 182.016V182.309C339.775 182.626 339.819 182.919 339.907 183.188C340 183.456 340.129 183.688 340.295 183.883C340.466 184.079 340.671 184.23 340.91 184.337C341.154 184.445 341.43 184.499 341.738 184.499C342.119 184.499 342.473 184.425 342.8 184.279C343.132 184.127 343.417 183.9 343.657 183.598L344.682 184.711C344.516 184.95 344.289 185.18 344.001 185.399C343.718 185.619 343.376 185.8 342.976 185.941C342.575 186.078 342.119 186.146 341.606 186.146ZM351.904 179.804V186H349.794V178.075H351.779L351.904 179.804ZM354.292 178.024L354.255 179.979C354.152 179.965 354.028 179.953 353.881 179.943C353.74 179.928 353.61 179.921 353.493 179.921C353.195 179.921 352.937 179.96 352.717 180.038C352.502 180.111 352.321 180.221 352.175 180.368C352.033 180.514 351.926 180.692 351.853 180.902C351.784 181.112 351.745 181.352 351.735 181.62L351.311 181.488C351.311 180.976 351.362 180.504 351.464 180.075C351.567 179.64 351.716 179.262 351.911 178.939C352.111 178.617 352.355 178.368 352.644 178.192C352.932 178.017 353.261 177.929 353.632 177.929C353.75 177.929 353.869 177.938 353.991 177.958C354.113 177.973 354.213 177.995 354.292 178.024ZM358.789 186.146C358.173 186.146 357.622 186.049 357.133 185.854C356.645 185.653 356.23 185.377 355.888 185.026C355.551 184.674 355.292 184.267 355.112 183.803C354.931 183.334 354.841 182.836 354.841 182.309V182.016C354.841 181.415 354.926 180.866 355.097 180.368C355.268 179.87 355.512 179.438 355.83 179.071C356.152 178.705 356.542 178.424 357.001 178.229C357.46 178.029 357.978 177.929 358.554 177.929C359.116 177.929 359.614 178.021 360.048 178.207C360.483 178.393 360.847 178.656 361.14 178.998C361.438 179.34 361.662 179.75 361.813 180.229C361.965 180.702 362.041 181.229 362.041 181.811V182.689H355.742V181.283H359.968V181.122C359.968 180.829 359.914 180.568 359.807 180.338C359.704 180.104 359.548 179.918 359.338 179.782C359.128 179.645 358.859 179.577 358.532 179.577C358.254 179.577 358.015 179.638 357.814 179.76C357.614 179.882 357.451 180.053 357.324 180.272C357.202 180.492 357.109 180.751 357.045 181.049C356.987 181.342 356.958 181.664 356.958 182.016V182.309C356.958 182.626 357.001 182.919 357.089 183.188C357.182 183.456 357.312 183.688 357.478 183.883C357.648 184.079 357.854 184.23 358.093 184.337C358.337 184.445 358.613 184.499 358.92 184.499C359.301 184.499 359.655 184.425 359.982 184.279C360.314 184.127 360.6 183.9 360.839 183.598L361.865 184.711C361.699 184.95 361.472 185.18 361.184 185.399C360.9 185.619 360.559 185.8 360.158 185.941C359.758 186.078 359.301 186.146 358.789 186.146ZM367.922 184.271V174.75H370.046V186H368.134L367.922 184.271ZM362.912 182.133V181.979C362.912 181.374 362.98 180.824 363.117 180.331C363.254 179.833 363.454 179.406 363.718 179.049C363.981 178.693 364.306 178.417 364.692 178.222C365.078 178.026 365.517 177.929 366.01 177.929C366.474 177.929 366.879 178.026 367.226 178.222C367.578 178.417 367.875 178.695 368.12 179.057C368.369 179.413 368.569 179.835 368.72 180.324C368.872 180.807 368.981 181.337 369.05 181.913V182.25C368.981 182.802 368.872 183.314 368.72 183.788C368.569 184.262 368.369 184.677 368.12 185.033C367.875 185.385 367.578 185.658 367.226 185.854C366.875 186.049 366.464 186.146 365.996 186.146C365.502 186.146 365.063 186.046 364.677 185.846C364.296 185.646 363.974 185.365 363.71 185.004C363.452 184.643 363.254 184.218 363.117 183.729C362.98 183.241 362.912 182.709 362.912 182.133ZM365.021 181.979V182.133C365.021 182.46 365.046 182.765 365.095 183.048C365.148 183.332 365.234 183.583 365.351 183.803C365.473 184.018 365.629 184.186 365.82 184.308C366.015 184.425 366.252 184.484 366.53 184.484C366.892 184.484 367.189 184.403 367.424 184.242C367.658 184.076 367.836 183.849 367.958 183.561C368.085 183.273 368.159 182.941 368.178 182.565V181.605C368.164 181.298 368.12 181.022 368.046 180.778C367.978 180.529 367.875 180.316 367.739 180.141C367.607 179.965 367.441 179.828 367.241 179.73C367.045 179.633 366.813 179.584 366.545 179.584C366.271 179.584 366.037 179.647 365.842 179.774C365.646 179.896 365.488 180.065 365.366 180.28C365.249 180.495 365.161 180.749 365.102 181.042C365.048 181.33 365.021 181.642 365.021 181.979ZM376.381 184.103V178.075H378.491V186H376.506L376.381 184.103ZM376.616 182.477L377.238 182.462C377.238 182.99 377.177 183.48 377.055 183.935C376.933 184.384 376.75 184.774 376.506 185.106C376.262 185.434 375.954 185.69 375.583 185.875C375.212 186.056 374.775 186.146 374.272 186.146C373.886 186.146 373.53 186.093 373.203 185.985C372.88 185.873 372.602 185.7 372.368 185.465C372.138 185.226 371.958 184.921 371.826 184.55C371.699 184.174 371.635 183.722 371.635 183.195V178.075H373.745V183.209C373.745 183.444 373.771 183.642 373.825 183.803C373.884 183.964 373.964 184.096 374.067 184.198C374.169 184.301 374.289 184.374 374.426 184.418C374.567 184.462 374.724 184.484 374.895 184.484C375.329 184.484 375.671 184.396 375.92 184.22C376.174 184.044 376.352 183.805 376.455 183.502C376.562 183.195 376.616 182.853 376.616 182.477ZM383.376 184.499C383.635 184.499 383.864 184.45 384.064 184.352C384.265 184.25 384.421 184.108 384.533 183.927C384.65 183.742 384.711 183.524 384.716 183.275H386.701C386.696 183.832 386.547 184.328 386.254 184.762C385.961 185.192 385.568 185.531 385.075 185.78C384.582 186.024 384.03 186.146 383.42 186.146C382.805 186.146 382.268 186.044 381.809 185.839C381.354 185.634 380.976 185.351 380.673 184.989C380.371 184.623 380.144 184.198 379.992 183.715C379.841 183.227 379.765 182.704 379.765 182.147V181.935C379.765 181.374 379.841 180.851 379.992 180.368C380.144 179.879 380.371 179.455 380.673 179.093C380.976 178.727 381.354 178.441 381.809 178.236C382.263 178.031 382.795 177.929 383.405 177.929C384.055 177.929 384.624 178.053 385.112 178.302C385.605 178.551 385.991 178.908 386.269 179.372C386.552 179.831 386.696 180.375 386.701 181.005H384.716C384.711 180.741 384.655 180.502 384.548 180.287C384.445 180.072 384.294 179.901 384.094 179.774C383.898 179.643 383.657 179.577 383.369 179.577C383.061 179.577 382.81 179.643 382.614 179.774C382.419 179.901 382.268 180.077 382.16 180.302C382.053 180.521 381.977 180.773 381.933 181.056C381.894 181.334 381.875 181.627 381.875 181.935V182.147C381.875 182.455 381.894 182.75 381.933 183.034C381.972 183.317 382.045 183.568 382.153 183.788C382.265 184.008 382.419 184.181 382.614 184.308C382.81 184.435 383.063 184.499 383.376 184.499ZM391.806 178.075V179.569H387.192V178.075H391.806ZM388.334 176.12H390.444V183.612C390.444 183.842 390.473 184.018 390.532 184.14C390.595 184.262 390.688 184.347 390.81 184.396C390.932 184.44 391.086 184.462 391.271 184.462C391.403 184.462 391.521 184.457 391.623 184.447C391.73 184.433 391.821 184.418 391.894 184.403L391.901 185.956C391.721 186.015 391.525 186.061 391.315 186.095C391.105 186.129 390.874 186.146 390.62 186.146C390.156 186.146 389.75 186.071 389.404 185.919C389.062 185.763 388.798 185.514 388.613 185.172C388.427 184.831 388.334 184.381 388.334 183.825V176.12ZM395.234 178.075V186H393.117V178.075H395.234ZM392.985 176.01C392.985 175.702 393.093 175.448 393.308 175.248C393.522 175.048 393.811 174.948 394.172 174.948C394.528 174.948 394.814 175.048 395.029 175.248C395.249 175.448 395.358 175.702 395.358 176.01C395.358 176.317 395.249 176.571 395.029 176.771C394.814 176.972 394.528 177.072 394.172 177.072C393.811 177.072 393.522 176.972 393.308 176.771C393.093 176.571 392.985 176.317 392.985 176.01ZM396.64 182.118V181.964C396.64 181.383 396.723 180.849 396.889 180.36C397.055 179.867 397.297 179.44 397.614 179.079C397.932 178.717 398.322 178.437 398.786 178.236C399.25 178.031 399.782 177.929 400.383 177.929C400.983 177.929 401.518 178.031 401.987 178.236C402.456 178.437 402.849 178.717 403.166 179.079C403.488 179.44 403.732 179.867 403.898 180.36C404.064 180.849 404.147 181.383 404.147 181.964V182.118C404.147 182.694 404.064 183.229 403.898 183.722C403.732 184.21 403.488 184.638 403.166 185.004C402.849 185.365 402.458 185.646 401.994 185.846C401.53 186.046 400.998 186.146 400.397 186.146C399.797 186.146 399.262 186.046 398.793 185.846C398.33 185.646 397.937 185.365 397.614 185.004C397.297 184.638 397.055 184.21 396.889 183.722C396.723 183.229 396.64 182.694 396.64 182.118ZM398.75 181.964V182.118C398.75 182.45 398.779 182.76 398.837 183.048C398.896 183.336 398.989 183.59 399.116 183.81C399.248 184.025 399.418 184.193 399.628 184.315C399.838 184.438 400.095 184.499 400.397 184.499C400.69 184.499 400.942 184.438 401.152 184.315C401.362 184.193 401.53 184.025 401.657 183.81C401.784 183.59 401.877 183.336 401.936 183.048C401.999 182.76 402.031 182.45 402.031 182.118V181.964C402.031 181.642 401.999 181.339 401.936 181.056C401.877 180.768 401.782 180.514 401.65 180.294C401.523 180.07 401.354 179.894 401.145 179.767C400.935 179.64 400.681 179.577 400.383 179.577C400.085 179.577 399.831 179.64 399.621 179.767C399.416 179.894 399.248 180.07 399.116 180.294C398.989 180.514 398.896 180.768 398.837 181.056C398.779 181.339 398.75 181.642 398.75 181.964ZM407.509 179.767V186H405.4V178.075H407.377L407.509 179.767ZM407.202 181.759H406.63C406.63 181.173 406.706 180.646 406.857 180.177C407.009 179.704 407.221 179.301 407.495 178.969C407.768 178.632 408.093 178.375 408.469 178.2C408.85 178.019 409.274 177.929 409.743 177.929C410.114 177.929 410.454 177.982 410.761 178.09C411.069 178.197 411.333 178.368 411.552 178.603C411.777 178.837 411.948 179.147 412.065 179.533C412.187 179.918 412.248 180.39 412.248 180.946V186H410.124V180.939C410.124 180.587 410.075 180.314 409.978 180.119C409.88 179.923 409.736 179.787 409.545 179.708C409.36 179.625 409.13 179.584 408.857 179.584C408.574 179.584 408.327 179.64 408.117 179.752C407.912 179.865 407.741 180.021 407.604 180.221C407.473 180.417 407.373 180.646 407.304 180.91C407.236 181.173 407.202 181.457 407.202 181.759Z" fill="black"/>
<path d="M300.488 246.075L301.799 248.485L303.146 246.075H305.395L303.154 249.95L305.498 254H303.242L301.813 251.451L300.385 254H298.129L300.473 249.95L298.232 246.075H300.488ZM313.627 252.352V254H306.333V252.594L309.782 248.895C310.129 248.509 310.402 248.17 310.603 247.877C310.803 247.579 310.947 247.313 311.035 247.079C311.127 246.839 311.174 246.612 311.174 246.397C311.174 246.075 311.12 245.799 311.013 245.57C310.905 245.335 310.747 245.155 310.537 245.028C310.332 244.901 310.078 244.837 309.775 244.837C309.453 244.837 309.174 244.916 308.94 245.072C308.71 245.228 308.535 245.445 308.413 245.724C308.295 246.002 308.237 246.317 308.237 246.668H306.12C306.12 246.034 306.271 245.453 306.574 244.925C306.877 244.393 307.304 243.971 307.856 243.658C308.408 243.341 309.062 243.182 309.819 243.182C310.566 243.182 311.196 243.304 311.708 243.548C312.226 243.788 312.617 244.134 312.88 244.588C313.149 245.038 313.283 245.575 313.283 246.2C313.283 246.551 313.227 246.896 313.115 247.232C313.002 247.564 312.841 247.896 312.631 248.229C312.426 248.556 312.177 248.888 311.884 249.225C311.591 249.562 311.267 249.911 310.91 250.272L309.057 252.352H313.627ZM323.054 251.81C323.054 251.659 323.01 251.522 322.922 251.4C322.834 251.278 322.67 251.166 322.431 251.063C322.197 250.956 321.857 250.858 321.413 250.77C321.013 250.682 320.639 250.572 320.292 250.44C319.951 250.304 319.653 250.14 319.399 249.95C319.15 249.759 318.955 249.535 318.813 249.276C318.671 249.012 318.601 248.712 318.601 248.375C318.601 248.043 318.671 247.73 318.813 247.438C318.959 247.145 319.167 246.886 319.436 246.661C319.709 246.432 320.041 246.253 320.432 246.126C320.827 245.995 321.271 245.929 321.765 245.929C322.453 245.929 323.044 246.039 323.537 246.258C324.035 246.478 324.416 246.781 324.68 247.167C324.948 247.547 325.083 247.982 325.083 248.47H322.973C322.973 248.265 322.929 248.082 322.841 247.921C322.758 247.755 322.626 247.625 322.446 247.533C322.27 247.435 322.041 247.386 321.757 247.386C321.523 247.386 321.32 247.428 321.149 247.511C320.979 247.589 320.847 247.696 320.754 247.833C320.666 247.965 320.622 248.111 320.622 248.272C320.622 248.395 320.646 248.504 320.695 248.602C320.749 248.695 320.834 248.78 320.952 248.858C321.069 248.937 321.22 249.01 321.406 249.078C321.596 249.142 321.831 249.2 322.109 249.254C322.68 249.371 323.19 249.525 323.64 249.715C324.089 249.901 324.445 250.155 324.709 250.477C324.973 250.794 325.104 251.212 325.104 251.729C325.104 252.081 325.026 252.403 324.87 252.696C324.714 252.989 324.489 253.246 324.196 253.465C323.903 253.68 323.552 253.849 323.142 253.971C322.736 254.088 322.28 254.146 321.772 254.146C321.035 254.146 320.41 254.015 319.897 253.751C319.389 253.487 319.003 253.153 318.74 252.748C318.481 252.337 318.352 251.917 318.352 251.488H320.351C320.361 251.776 320.434 252.008 320.571 252.184C320.712 252.359 320.891 252.486 321.105 252.564C321.325 252.643 321.562 252.682 321.816 252.682C322.089 252.682 322.316 252.645 322.497 252.572C322.678 252.494 322.814 252.391 322.907 252.264C323.005 252.132 323.054 251.981 323.054 251.81ZM328.701 246.075V254H326.584V246.075H328.701ZM326.452 244.01C326.452 243.702 326.56 243.448 326.774 243.248C326.989 243.048 327.277 242.948 327.639 242.948C327.995 242.948 328.281 243.048 328.496 243.248C328.715 243.448 328.825 243.702 328.825 244.01C328.825 244.317 328.715 244.571 328.496 244.771C328.281 244.972 327.995 245.072 327.639 245.072C327.277 245.072 326.989 244.972 326.774 244.771C326.56 244.571 326.452 244.317 326.452 244.01ZM336.75 252.352V254H330.729V252.352H336.75ZM336.633 247.291L331.579 254H330.166V252.748L335.197 246.075H336.633V247.291ZM335.886 246.075V247.73H330.283V246.075H335.886ZM341.606 254.146C340.991 254.146 340.439 254.049 339.951 253.854C339.462 253.653 339.047 253.377 338.706 253.026C338.369 252.674 338.11 252.267 337.929 251.803C337.749 251.334 337.658 250.836 337.658 250.309V250.016C337.658 249.415 337.744 248.866 337.915 248.368C338.085 247.87 338.33 247.438 338.647 247.071C338.969 246.705 339.36 246.424 339.819 246.229C340.278 246.029 340.795 245.929 341.372 245.929C341.933 245.929 342.431 246.021 342.866 246.207C343.3 246.393 343.664 246.656 343.957 246.998C344.255 247.34 344.479 247.75 344.631 248.229C344.782 248.702 344.858 249.229 344.858 249.811V250.689H338.559V249.283H342.785V249.122C342.785 248.829 342.731 248.568 342.624 248.338C342.521 248.104 342.365 247.918 342.155 247.782C341.945 247.645 341.677 247.577 341.35 247.577C341.071 247.577 340.832 247.638 340.632 247.76C340.432 247.882 340.268 248.053 340.141 248.272C340.019 248.492 339.926 248.751 339.863 249.049C339.804 249.342 339.775 249.664 339.775 250.016V250.309C339.775 250.626 339.819 250.919 339.907 251.188C340 251.456 340.129 251.688 340.295 251.883C340.466 252.079 340.671 252.23 340.91 252.337C341.154 252.445 341.43 252.499 341.738 252.499C342.119 252.499 342.473 252.425 342.8 252.279C343.132 252.127 343.417 251.9 343.657 251.598L344.682 252.711C344.516 252.95 344.289 253.18 344.001 253.399C343.718 253.619 343.376 253.8 342.976 253.941C342.575 254.078 342.119 254.146 341.606 254.146ZM351.904 247.804V254H349.794V246.075H351.779L351.904 247.804ZM354.292 246.024L354.255 247.979C354.152 247.965 354.028 247.953 353.881 247.943C353.74 247.928 353.61 247.921 353.493 247.921C353.195 247.921 352.937 247.96 352.717 248.038C352.502 248.111 352.321 248.221 352.175 248.368C352.033 248.514 351.926 248.692 351.853 248.902C351.784 249.112 351.745 249.352 351.735 249.62L351.311 249.488C351.311 248.976 351.362 248.504 351.464 248.075C351.567 247.64 351.716 247.262 351.911 246.939C352.111 246.617 352.355 246.368 352.644 246.192C352.932 246.017 353.261 245.929 353.632 245.929C353.75 245.929 353.869 245.938 353.991 245.958C354.113 245.973 354.213 245.995 354.292 246.024ZM358.789 254.146C358.173 254.146 357.622 254.049 357.133 253.854C356.645 253.653 356.23 253.377 355.888 253.026C355.551 252.674 355.292 252.267 355.112 251.803C354.931 251.334 354.841 250.836 354.841 250.309V250.016C354.841 249.415 354.926 248.866 355.097 248.368C355.268 247.87 355.512 247.438 355.83 247.071C356.152 246.705 356.542 246.424 357.001 246.229C357.46 246.029 357.978 245.929 358.554 245.929C359.116 245.929 359.614 246.021 360.048 246.207C360.483 246.393 360.847 246.656 361.14 246.998C361.438 247.34 361.662 247.75 361.813 248.229C361.965 248.702 362.041 249.229 362.041 249.811V250.689H355.742V249.283H359.968V249.122C359.968 248.829 359.914 248.568 359.807 248.338C359.704 248.104 359.548 247.918 359.338 247.782C359.128 247.645 358.859 247.577 358.532 247.577C358.254 247.577 358.015 247.638 357.814 247.76C357.614 247.882 357.451 248.053 357.324 248.272C357.202 248.492 357.109 248.751 357.045 249.049C356.987 249.342 356.958 249.664 356.958 250.016V250.309C356.958 250.626 357.001 250.919 357.089 251.188C357.182 251.456 357.312 251.688 357.478 251.883C357.648 252.079 357.854 252.23 358.093 252.337C358.337 252.445 358.613 252.499 358.92 252.499C359.301 252.499 359.655 252.425 359.982 252.279C360.314 252.127 360.6 251.9 360.839 251.598L361.865 252.711C361.699 252.95 361.472 253.18 361.184 253.399C360.9 253.619 360.559 253.8 360.158 253.941C359.758 254.078 359.301 254.146 358.789 254.146ZM367.922 252.271V242.75H370.046V254H368.134L367.922 252.271ZM362.912 250.133V249.979C362.912 249.374 362.98 248.824 363.117 248.331C363.254 247.833 363.454 247.406 363.718 247.049C363.981 246.693 364.306 246.417 364.692 246.222C365.078 246.026 365.517 245.929 366.01 245.929C366.474 245.929 366.879 246.026 367.226 246.222C367.578 246.417 367.875 246.695 368.12 247.057C368.369 247.413 368.569 247.835 368.72 248.324C368.872 248.807 368.981 249.337 369.05 249.913V250.25C368.981 250.802 368.872 251.314 368.72 251.788C368.569 252.262 368.369 252.677 368.12 253.033C367.875 253.385 367.578 253.658 367.226 253.854C366.875 254.049 366.464 254.146 365.996 254.146C365.502 254.146 365.063 254.046 364.677 253.846C364.296 253.646 363.974 253.365 363.71 253.004C363.452 252.643 363.254 252.218 363.117 251.729C362.98 251.241 362.912 250.709 362.912 250.133ZM365.021 249.979V250.133C365.021 250.46 365.046 250.765 365.095 251.048C365.148 251.332 365.234 251.583 365.351 251.803C365.473 252.018 365.629 252.186 365.82 252.308C366.015 252.425 366.252 252.484 366.53 252.484C366.892 252.484 367.189 252.403 367.424 252.242C367.658 252.076 367.836 251.849 367.958 251.561C368.085 251.273 368.159 250.941 368.178 250.565V249.605C368.164 249.298 368.12 249.022 368.046 248.778C367.978 248.529 367.875 248.316 367.739 248.141C367.607 247.965 367.441 247.828 367.241 247.73C367.045 247.633 366.813 247.584 366.545 247.584C366.271 247.584 366.037 247.647 365.842 247.774C365.646 247.896 365.488 248.065 365.366 248.28C365.249 248.495 365.161 248.749 365.102 249.042C365.048 249.33 365.021 249.642 365.021 249.979ZM376.381 252.103V246.075H378.491V254H376.506L376.381 252.103ZM376.616 250.477L377.238 250.462C377.238 250.99 377.177 251.48 377.055 251.935C376.933 252.384 376.75 252.774 376.506 253.106C376.262 253.434 375.954 253.69 375.583 253.875C375.212 254.056 374.775 254.146 374.272 254.146C373.886 254.146 373.53 254.093 373.203 253.985C372.88 253.873 372.602 253.7 372.368 253.465C372.138 253.226 371.958 252.921 371.826 252.55C371.699 252.174 371.635 251.722 371.635 251.195V246.075H373.745V251.209C373.745 251.444 373.771 251.642 373.825 251.803C373.884 251.964 373.964 252.096 374.067 252.198C374.169 252.301 374.289 252.374 374.426 252.418C374.567 252.462 374.724 252.484 374.895 252.484C375.329 252.484 375.671 252.396 375.92 252.22C376.174 252.044 376.352 251.805 376.455 251.502C376.562 251.195 376.616 250.853 376.616 250.477ZM383.376 252.499C383.635 252.499 383.864 252.45 384.064 252.352C384.265 252.25 384.421 252.108 384.533 251.927C384.65 251.742 384.711 251.524 384.716 251.275H386.701C386.696 251.832 386.547 252.328 386.254 252.762C385.961 253.192 385.568 253.531 385.075 253.78C384.582 254.024 384.03 254.146 383.42 254.146C382.805 254.146 382.268 254.044 381.809 253.839C381.354 253.634 380.976 253.351 380.673 252.989C380.371 252.623 380.144 252.198 379.992 251.715C379.841 251.227 379.765 250.704 379.765 250.147V249.935C379.765 249.374 379.841 248.851 379.992 248.368C380.144 247.879 380.371 247.455 380.673 247.093C380.976 246.727 381.354 246.441 381.809 246.236C382.263 246.031 382.795 245.929 383.405 245.929C384.055 245.929 384.624 246.053 385.112 246.302C385.605 246.551 385.991 246.908 386.269 247.372C386.552 247.831 386.696 248.375 386.701 249.005H384.716C384.711 248.741 384.655 248.502 384.548 248.287C384.445 248.072 384.294 247.901 384.094 247.774C383.898 247.643 383.657 247.577 383.369 247.577C383.061 247.577 382.81 247.643 382.614 247.774C382.419 247.901 382.268 248.077 382.16 248.302C382.053 248.521 381.977 248.773 381.933 249.056C381.894 249.334 381.875 249.627 381.875 249.935V250.147C381.875 250.455 381.894 250.75 381.933 251.034C381.972 251.317 382.045 251.568 382.153 251.788C382.265 252.008 382.419 252.181 382.614 252.308C382.81 252.435 383.063 252.499 383.376 252.499ZM391.806 246.075V247.569H387.192V246.075H391.806ZM388.334 244.12H390.444V251.612C390.444 251.842 390.473 252.018 390.532 252.14C390.595 252.262 390.688 252.347 390.81 252.396C390.932 252.44 391.086 252.462 391.271 252.462C391.403 252.462 391.521 252.457 391.623 252.447C391.73 252.433 391.821 252.418 391.894 252.403L391.901 253.956C391.721 254.015 391.525 254.061 391.315 254.095C391.105 254.129 390.874 254.146 390.62 254.146C390.156 254.146 389.75 254.071 389.404 253.919C389.062 253.763 388.798 253.514 388.613 253.172C388.427 252.831 388.334 252.381 388.334 251.825V244.12ZM395.234 246.075V254H393.117V246.075H395.234ZM392.985 244.01C392.985 243.702 393.093 243.448 393.308 243.248C393.522 243.048 393.811 242.948 394.172 242.948C394.528 242.948 394.814 243.048 395.029 243.248C395.249 243.448 395.358 243.702 395.358 244.01C395.358 244.317 395.249 244.571 395.029 244.771C394.814 244.972 394.528 245.072 394.172 245.072C393.811 245.072 393.522 244.972 393.308 244.771C393.093 244.571 392.985 244.317 392.985 244.01ZM396.64 250.118V249.964C396.64 249.383 396.723 248.849 396.889 248.36C397.055 247.867 397.297 247.44 397.614 247.079C397.932 246.717 398.322 246.437 398.786 246.236C399.25 246.031 399.782 245.929 400.383 245.929C400.983 245.929 401.518 246.031 401.987 246.236C402.456 246.437 402.849 246.717 403.166 247.079C403.488 247.44 403.732 247.867 403.898 248.36C404.064 248.849 404.147 249.383 404.147 249.964V250.118C404.147 250.694 404.064 251.229 403.898 251.722C403.732 252.21 403.488 252.638 403.166 253.004C402.849 253.365 402.458 253.646 401.994 253.846C401.53 254.046 400.998 254.146 400.397 254.146C399.797 254.146 399.262 254.046 398.793 253.846C398.33 253.646 397.937 253.365 397.614 253.004C397.297 252.638 397.055 252.21 396.889 251.722C396.723 251.229 396.64 250.694 396.64 250.118ZM398.75 249.964V250.118C398.75 250.45 398.779 250.76 398.837 251.048C398.896 251.336 398.989 251.59 399.116 251.81C399.248 252.025 399.418 252.193 399.628 252.315C399.838 252.438 400.095 252.499 400.397 252.499C400.69 252.499 400.942 252.438 401.152 252.315C401.362 252.193 401.53 252.025 401.657 251.81C401.784 251.59 401.877 251.336 401.936 251.048C401.999 250.76 402.031 250.45 402.031 250.118V249.964C402.031 249.642 401.999 249.339 401.936 249.056C401.877 248.768 401.782 248.514 401.65 248.294C401.523 248.07 401.354 247.894 401.145 247.767C400.935 247.64 400.681 247.577 400.383 247.577C400.085 247.577 399.831 247.64 399.621 247.767C399.416 247.894 399.248 248.07 399.116 248.294C398.989 248.514 398.896 248.768 398.837 249.056C398.779 249.339 398.75 249.642 398.75 249.964ZM407.509 247.767V254H405.4V246.075H407.377L407.509 247.767ZM407.202 249.759H406.63C406.63 249.173 406.706 248.646 406.857 248.177C407.009 247.704 407.221 247.301 407.495 246.969C407.768 246.632 408.093 246.375 408.469 246.2C408.85 246.019 409.274 245.929 409.743 245.929C410.114 245.929 410.454 245.982 410.761 246.09C411.069 246.197 411.333 246.368 411.552 246.603C411.777 246.837 411.948 247.147 412.065 247.533C412.187 247.918 412.248 248.39 412.248 248.946V254H410.124V248.939C410.124 248.587 410.075 248.314 409.978 248.119C409.88 247.923 409.736 247.787 409.545 247.708C409.36 247.625 409.13 247.584 408.857 247.584C408.574 247.584 408.327 247.64 408.117 247.752C407.912 247.865 407.741 248.021 407.604 248.221C407.473 248.417 407.373 248.646 407.304 248.91C407.236 249.173 407.202 249.457 407.202 249.759Z" fill="black"/>
<path d="M488.236 30V8.82H491.596L499.936 21.81H498.226L506.536 8.82H509.926V30H505.216V16.77L506.056 16.98L500.626 25.44H497.506L492.106 16.98L492.916 16.77V30H488.236ZM520.588 30.33C519.088 30.33 517.728 30 516.508 29.34C515.308 28.66 514.358 27.74 513.658 26.58C512.958 25.42 512.608 24.12 512.608 22.68C512.608 21.24 512.958 19.95 513.658 18.81C514.358 17.67 515.308 16.77 516.508 16.11C517.708 15.43 519.068 15.09 520.588 15.09C522.108 15.09 523.468 15.42 524.668 16.08C525.868 16.74 526.818 17.65 527.518 18.81C528.218 19.95 528.568 21.24 528.568 22.68C528.568 24.12 528.218 25.42 527.518 26.58C526.818 27.74 525.868 28.66 524.668 29.34C523.468 30 522.108 30.33 520.588 30.33ZM520.588 26.16C521.248 26.16 521.828 26.02 522.328 25.74C522.828 25.44 523.208 25.03 523.468 24.51C523.748 23.97 523.888 23.36 523.888 22.68C523.888 22 523.748 21.41 523.468 20.91C523.188 20.39 522.798 19.99 522.298 19.71C521.818 19.41 521.248 19.26 520.588 19.26C519.948 19.26 519.378 19.41 518.878 19.71C518.378 19.99 517.988 20.39 517.708 20.91C517.428 21.43 517.288 22.03 517.288 22.71C517.288 23.37 517.428 23.97 517.708 24.51C517.988 25.03 518.378 25.44 518.878 25.74C519.378 26.02 519.948 26.16 520.588 26.16ZM530.853 30V8.22H535.443V30H530.853ZM545.876 30.33C544.296 30.33 542.886 30.01 541.646 29.37C540.426 28.71 539.466 27.8 538.766 26.64C538.066 25.48 537.716 24.17 537.716 22.71C537.716 21.25 538.056 19.95 538.736 18.81C539.436 17.65 540.376 16.74 541.556 16.08C542.736 15.42 544.066 15.09 545.546 15.09C546.986 15.09 548.256 15.4 549.356 16.02C550.456 16.64 551.316 17.5 551.936 18.6C552.576 19.7 552.896 20.96 552.896 22.38C552.896 22.64 552.876 22.92 552.836 23.22C552.816 23.5 552.766 23.83 552.686 24.21L540.116 24.24V21.09L550.736 21.06L548.756 22.38C548.736 21.54 548.606 20.85 548.366 20.31C548.126 19.75 547.766 19.33 547.286 19.05C546.826 18.75 546.256 18.6 545.576 18.6C544.856 18.6 544.226 18.77 543.686 19.11C543.166 19.43 542.756 19.89 542.456 20.49C542.176 21.09 542.036 21.82 542.036 22.68C542.036 23.54 542.186 24.28 542.486 24.9C542.806 25.5 543.246 25.97 543.806 26.31C544.386 26.63 545.066 26.79 545.846 26.79C546.566 26.79 547.216 26.67 547.796 26.43C548.376 26.17 548.886 25.79 549.326 25.29L551.846 27.81C551.126 28.65 550.256 29.28 549.236 29.7C548.216 30.12 547.096 30.33 545.876 30.33ZM562.161 30.33C560.661 30.33 559.301 30 558.081 29.34C556.861 28.68 555.901 27.77 555.201 26.61C554.501 25.45 554.151 24.15 554.151 22.71C554.151 21.25 554.501 19.95 555.201 18.81C555.921 17.65 556.891 16.74 558.111 16.08C559.331 15.42 560.701 15.09 562.221 15.09C563.361 15.09 564.401 15.29 565.341 15.69C566.301 16.07 567.151 16.65 567.891 17.43L564.951 20.37C564.611 19.99 564.211 19.71 563.751 19.53C563.311 19.35 562.801 19.26 562.221 19.26C561.561 19.26 560.971 19.41 560.451 19.71C559.951 19.99 559.551 20.39 559.251 20.91C558.971 21.41 558.831 22 558.831 22.68C558.831 23.36 558.971 23.96 559.251 24.48C559.551 25 559.961 25.41 560.481 25.71C561.001 26.01 561.581 26.16 562.221 26.16C562.821 26.16 563.351 26.06 563.811 25.86C564.291 25.64 564.701 25.34 565.041 24.96L567.951 27.9C567.191 28.7 566.331 29.31 565.371 29.73C564.411 30.13 563.341 30.33 562.161 30.33ZM576.474 30.33C575.134 30.33 573.944 30.06 572.904 29.52C571.884 28.96 571.084 28.2 570.504 27.24C569.924 26.26 569.634 25.14 569.634 23.88V15.42H574.224V23.82C574.224 24.32 574.304 24.75 574.464 25.11C574.644 25.47 574.904 25.75 575.244 25.95C575.584 26.15 575.994 26.25 576.474 26.25C577.154 26.25 577.694 26.04 578.094 25.62C578.494 25.18 578.694 24.58 578.694 23.82V15.42H583.284V23.85C583.284 25.13 582.994 26.26 582.414 27.24C581.834 28.2 581.034 28.96 580.014 29.52C578.994 30.06 577.814 30.33 576.474 30.33ZM586.166 30V8.22H590.756V30H586.166ZM601.188 30.33C599.608 30.33 598.198 30.01 596.958 29.37C595.738 28.71 594.778 27.8 594.078 26.64C593.378 25.48 593.028 24.17 593.028 22.71C593.028 21.25 593.368 19.95 594.048 18.81C594.748 17.65 595.688 16.74 596.868 16.08C598.048 15.42 599.378 15.09 600.858 15.09C602.298 15.09 603.568 15.4 604.668 16.02C605.768 16.64 606.628 17.5 607.248 18.6C607.888 19.7 608.208 20.96 608.208 22.38C608.208 22.64 608.188 22.92 608.148 23.22C608.128 23.5 608.078 23.83 607.998 24.21L595.428 24.24V21.09L606.048 21.06L604.068 22.38C604.048 21.54 603.918 20.85 603.678 20.31C603.438 19.75 603.078 19.33 602.598 19.05C602.138 18.75 601.568 18.6 600.888 18.6C600.168 18.6 599.538 18.77 598.998 19.11C598.478 19.43 598.068 19.89 597.768 20.49C597.488 21.09 597.348 21.82 597.348 22.68C597.348 23.54 597.498 24.28 597.798 24.9C598.118 25.5 598.558 25.97 599.118 26.31C599.698 26.63 600.378 26.79 601.158 26.79C601.878 26.79 602.528 26.67 603.108 26.43C603.688 26.17 604.198 25.79 604.638 25.29L607.158 27.81C606.438 28.65 605.568 29.28 604.548 29.7C603.528 30.12 602.408 30.33 601.188 30.33ZM439.022 68V53.42H443.612V68H439.022ZM443.612 59.99L441.692 58.49C442.072 56.79 442.712 55.47 443.612 54.53C444.512 53.59 445.762 53.12 447.362 53.12C448.062 53.12 448.672 53.23 449.192 53.45C449.732 53.65 450.202 53.97 450.602 54.41L447.872 57.86C447.672 57.64 447.422 57.47 447.122 57.35C446.822 57.23 446.482 57.17 446.102 57.17C445.342 57.17 444.732 57.41 444.272 57.89C443.832 58.35 443.612 59.05 443.612 59.99ZM458.615 68.33C457.035 68.33 455.625 68.01 454.385 67.37C453.165 66.71 452.205 65.8 451.505 64.64C450.805 63.48 450.455 62.17 450.455 60.71C450.455 59.25 450.795 57.95 451.475 56.81C452.175 55.65 453.115 54.74 454.295 54.08C455.475 53.42 456.805 53.09 458.285 53.09C459.725 53.09 460.995 53.4 462.095 54.02C463.195 54.64 464.055 55.5 464.675 56.6C465.315 57.7 465.635 58.96 465.635 60.38C465.635 60.64 465.615 60.92 465.575 61.22C465.555 61.5 465.505 61.83 465.425 62.21L452.855 62.24V59.09L463.475 59.06L461.495 60.38C461.475 59.54 461.345 58.85 461.105 58.31C460.865 57.75 460.505 57.33 460.025 57.05C459.565 56.75 458.995 56.6 458.315 56.6C457.595 56.6 456.965 56.77 456.425 57.11C455.905 57.43 455.495 57.89 455.195 58.49C454.915 59.09 454.775 59.82 454.775 60.68C454.775 61.54 454.925 62.28 455.225 62.9C455.545 63.5 455.985 63.97 456.545 64.31C457.125 64.63 457.805 64.79 458.585 64.79C459.305 64.79 459.955 64.67 460.535 64.43C461.115 64.17 461.625 63.79 462.065 63.29L464.585 65.81C463.865 66.65 462.995 67.28 461.975 67.7C460.955 68.12 459.835 68.33 458.615 68.33ZM476.25 68.3C475.27 68.3 474.37 68.11 473.55 67.73C472.73 67.35 472.06 66.83 471.54 66.17C471.02 65.49 470.72 64.72 470.64 63.86V57.71C470.72 56.85 471.02 56.07 471.54 55.37C472.06 54.67 472.73 54.12 473.55 53.72C474.37 53.32 475.27 53.12 476.25 53.12C477.63 53.12 478.85 53.45 479.91 54.11C480.99 54.77 481.83 55.67 482.43 56.81C483.05 57.95 483.36 59.25 483.36 60.71C483.36 62.17 483.05 63.47 482.43 64.61C481.83 65.75 480.99 66.65 479.91 67.31C478.85 67.97 477.63 68.3 476.25 68.3ZM475.41 64.16C476.07 64.16 476.64 64.01 477.12 63.71C477.62 63.41 478.01 63 478.29 62.48C478.57 61.96 478.71 61.37 478.71 60.71C478.71 60.03 478.57 59.43 478.29 58.91C478.01 58.39 477.62 57.99 477.12 57.71C476.64 57.41 476.08 57.26 475.44 57.26C474.8 57.26 474.23 57.41 473.73 57.71C473.25 57.99 472.87 58.39 472.59 58.91C472.31 59.43 472.17 60.03 472.17 60.71C472.17 61.37 472.3 61.96 472.56 62.48C472.84 63 473.23 63.41 473.73 63.71C474.23 64.01 474.79 64.16 475.41 64.16ZM467.85 74.15V53.42H472.44V57.17L471.69 60.71L472.38 64.25V74.15H467.85ZM485.692 68V53.42H490.282V68H485.692ZM490.282 59.99L488.362 58.49C488.742 56.79 489.382 55.47 490.282 54.53C491.182 53.59 492.432 53.12 494.032 53.12C494.732 53.12 495.342 53.23 495.862 53.45C496.402 53.65 496.872 53.97 497.272 54.41L494.542 57.86C494.342 57.64 494.092 57.47 493.792 57.35C493.492 57.23 493.152 57.17 492.772 57.17C492.012 57.17 491.402 57.41 490.942 57.89C490.502 58.35 490.282 59.05 490.282 59.99ZM505.285 68.33C503.705 68.33 502.295 68.01 501.055 67.37C499.835 66.71 498.875 65.8 498.175 64.64C497.475 63.48 497.125 62.17 497.125 60.71C497.125 59.25 497.465 57.95 498.145 56.81C498.845 55.65 499.785 54.74 500.965 54.08C502.145 53.42 503.475 53.09 504.955 53.09C506.395 53.09 507.665 53.4 508.765 54.02C509.865 54.64 510.725 55.5 511.345 56.6C511.985 57.7 512.305 58.96 512.305 60.38C512.305 60.64 512.285 60.92 512.245 61.22C512.225 61.5 512.175 61.83 512.095 62.21L499.525 62.24V59.09L510.145 59.06L508.165 60.38C508.145 59.54 508.015 58.85 507.775 58.31C507.535 57.75 507.175 57.33 506.695 57.05C506.235 56.75 505.665 56.6 504.985 56.6C504.265 56.6 503.635 56.77 503.095 57.11C502.575 57.43 502.165 57.89 501.865 58.49C501.585 59.09 501.445 59.82 501.445 60.68C501.445 61.54 501.595 62.28 501.895 62.9C502.215 63.5 502.655 63.97 503.215 64.31C503.795 64.63 504.475 64.79 505.255 64.79C505.975 64.79 506.625 64.67 507.205 64.43C507.785 64.17 508.295 63.79 508.735 63.29L511.255 65.81C510.535 66.65 509.665 67.28 508.645 67.7C507.625 68.12 506.505 68.33 505.285 68.33ZM519.83 68.36C518.97 68.36 518.12 68.25 517.28 68.03C516.46 67.81 515.69 67.5 514.97 67.1C514.27 66.68 513.67 66.2 513.17 65.66L515.78 63.02C516.26 63.54 516.83 63.95 517.49 64.25C518.15 64.53 518.87 64.67 519.65 64.67C520.19 64.67 520.6 64.59 520.88 64.43C521.18 64.27 521.33 64.05 521.33 63.77C521.33 63.41 521.15 63.14 520.79 62.96C520.45 62.76 520.01 62.59 519.47 62.45C518.93 62.29 518.36 62.12 517.76 61.94C517.16 61.76 516.59 61.51 516.05 61.19C515.51 60.87 515.07 60.43 514.73 59.87C514.39 59.29 514.22 58.56 514.22 57.68C514.22 56.74 514.46 55.93 514.94 55.25C515.42 54.55 516.1 54 516.98 53.6C517.86 53.2 518.89 53 520.07 53C521.31 53 522.45 53.22 523.49 53.66C524.55 54.08 525.41 54.71 526.07 55.55L523.46 58.19C523 57.65 522.48 57.27 521.9 57.05C521.34 56.83 520.79 56.72 520.25 56.72C519.73 56.72 519.34 56.8 519.08 56.96C518.82 57.1 518.69 57.31 518.69 57.59C518.69 57.89 518.86 58.13 519.2 58.31C519.54 58.49 519.98 58.65 520.52 58.79C521.06 58.93 521.63 59.1 522.23 59.3C522.83 59.5 523.4 59.77 523.94 60.11C524.48 60.45 524.92 60.91 525.26 61.49C525.6 62.05 525.77 62.79 525.77 63.71C525.77 65.13 525.23 66.26 524.15 67.1C523.09 67.94 521.65 68.36 519.83 68.36ZM535.461 68.33C533.881 68.33 532.471 68.01 531.231 67.37C530.011 66.71 529.051 65.8 528.351 64.64C527.651 63.48 527.301 62.17 527.301 60.71C527.301 59.25 527.641 57.95 528.321 56.81C529.021 55.65 529.961 54.74 531.141 54.08C532.321 53.42 533.651 53.09 535.131 53.09C536.571 53.09 537.841 53.4 538.941 54.02C540.041 54.64 540.901 55.5 541.521 56.6C542.161 57.7 542.481 58.96 542.481 60.38C542.481 60.64 542.461 60.92 542.421 61.22C542.401 61.5 542.351 61.83 542.271 62.21L529.701 62.24V59.09L540.321 59.06L538.341 60.38C538.321 59.54 538.191 58.85 537.951 58.31C537.711 57.75 537.351 57.33 536.871 57.05C536.411 56.75 535.841 56.6 535.161 56.6C534.441 56.6 533.811 56.77 533.271 57.11C532.751 57.43 532.341 57.89 532.041 58.49C531.761 59.09 531.621 59.82 531.621 60.68C531.621 61.54 531.771 62.28 532.071 62.9C532.391 63.5 532.831 63.97 533.391 64.31C533.971 64.63 534.651 64.79 535.431 64.79C536.151 64.79 536.801 64.67 537.381 64.43C537.961 64.17 538.471 63.79 538.911 63.29L541.431 65.81C540.711 66.65 539.841 67.28 538.821 67.7C537.801 68.12 536.681 68.33 535.461 68.33ZM554.326 68V59.69C554.326 58.93 554.086 58.32 553.606 57.86C553.146 57.38 552.556 57.14 551.836 57.14C551.336 57.14 550.896 57.25 550.516 57.47C550.136 57.67 549.836 57.97 549.616 58.37C549.396 58.75 549.286 59.19 549.286 59.69L547.516 58.82C547.516 57.68 547.766 56.68 548.266 55.82C548.766 54.96 549.456 54.3 550.336 53.84C551.236 53.36 552.246 53.12 553.366 53.12C554.446 53.12 555.396 53.38 556.216 53.9C557.056 54.4 557.716 55.07 558.196 55.91C558.676 56.75 558.916 57.67 558.916 58.67V68H554.326ZM544.696 68V53.42H549.286V68H544.696ZM563.758 68V47.39H568.348V68H563.758ZM560.458 57.32V53.42H571.648V57.32H560.458ZM579.468 68.3C578.128 68.3 576.928 67.97 575.868 67.31C574.828 66.65 573.998 65.75 573.378 64.61C572.778 63.47 572.478 62.17 572.478 60.71C572.478 59.25 572.778 57.95 573.378 56.81C573.998 55.67 574.828 54.77 575.868 54.11C576.928 53.45 578.128 53.12 579.468 53.12C580.448 53.12 581.328 53.31 582.108 53.69C582.908 54.07 583.558 54.6 584.058 55.28C584.558 55.94 584.838 56.7 584.898 57.56V63.86C584.838 64.72 584.558 65.49 584.058 66.17C583.578 66.83 582.938 67.35 582.138 67.73C581.338 68.11 580.448 68.3 579.468 68.3ZM580.398 64.16C581.378 64.16 582.168 63.84 582.768 63.2C583.368 62.54 583.668 61.71 583.668 60.71C583.668 60.03 583.528 59.43 583.248 58.91C582.988 58.39 582.608 57.99 582.108 57.71C581.628 57.41 581.068 57.26 580.428 57.26C579.788 57.26 579.218 57.41 578.718 57.71C578.238 57.99 577.848 58.39 577.548 58.91C577.268 59.43 577.128 60.03 577.128 60.71C577.128 61.37 577.268 61.96 577.548 62.48C577.828 63 578.218 63.41 578.718 63.71C579.218 64.01 579.778 64.16 580.398 64.16ZM583.488 68V64.07L584.178 60.53L583.488 56.99V53.42H587.988V68H583.488ZM593.29 68V47.39H597.88V68H593.29ZM589.99 57.32V53.42H601.18V57.32H589.99ZM603.202 68V53.42H607.792V68H603.202ZM605.512 51.41C604.792 51.41 604.192 51.17 603.712 50.69C603.252 50.19 603.022 49.59 603.022 48.89C603.022 48.17 603.252 47.57 603.712 47.09C604.192 46.61 604.792 46.37 605.512 46.37C606.232 46.37 606.822 46.61 607.282 47.09C607.742 47.57 607.972 48.17 607.972 48.89C607.972 49.59 607.742 50.19 607.282 50.69C606.822 51.17 606.232 51.41 605.512 51.41ZM618.044 68.33C616.544 68.33 615.184 68 613.964 67.34C612.764 66.66 611.814 65.74 611.114 64.58C610.414 63.42 610.064 62.12 610.064 60.68C610.064 59.24 610.414 57.95 611.114 56.81C611.814 55.67 612.764 54.77 613.964 54.11C615.164 53.43 616.524 53.09 618.044 53.09C619.564 53.09 620.924 53.42 622.124 54.08C623.324 54.74 624.274 55.65 624.974 56.81C625.674 57.95 626.024 59.24 626.024 60.68C626.024 62.12 625.674 63.42 624.974 64.58C624.274 65.74 623.324 66.66 622.124 67.34C620.924 68 619.564 68.33 618.044 68.33ZM618.044 64.16C618.704 64.16 619.284 64.02 619.784 63.74C620.284 63.44 620.664 63.03 620.924 62.51C621.204 61.97 621.344 61.36 621.344 60.68C621.344 60 621.204 59.41 620.924 58.91C620.644 58.39 620.254 57.99 619.754 57.71C619.274 57.41 618.704 57.26 618.044 57.26C617.404 57.26 616.834 57.41 616.334 57.71C615.834 57.99 615.444 58.39 615.164 58.91C614.884 59.43 614.744 60.03 614.744 60.71C614.744 61.37 614.884 61.97 615.164 62.51C615.444 63.03 615.834 63.44 616.334 63.74C616.834 64.02 617.404 64.16 618.044 64.16ZM637.939 68V59.69C637.939 58.93 637.699 58.32 637.219 57.86C636.759 57.38 636.169 57.14 635.449 57.14C634.949 57.14 634.509 57.25 634.129 57.47C633.749 57.67 633.449 57.97 633.229 58.37C633.009 58.75 632.899 59.19 632.899 59.69L631.129 58.82C631.129 57.68 631.379 56.68 631.879 55.82C632.379 54.96 633.069 54.3 633.949 53.84C634.849 53.36 635.859 53.12 636.979 53.12C638.059 53.12 639.009 53.38 639.829 53.9C640.669 54.4 641.329 55.07 641.809 55.91C642.289 56.75 642.529 57.67 642.529 58.67V68H637.939ZM628.309 68V53.42H632.899V68H628.309ZM650.787 68.36C649.927 68.36 649.077 68.25 648.237 68.03C647.417 67.81 646.647 67.5 645.927 67.1C645.227 66.68 644.627 66.2 644.127 65.66L646.737 63.02C647.217 63.54 647.787 63.95 648.447 64.25C649.107 64.53 649.827 64.67 650.607 64.67C651.147 64.67 651.557 64.59 651.837 64.43C652.137 64.27 652.287 64.05 652.287 63.77C652.287 63.41 652.107 63.14 651.747 62.96C651.407 62.76 650.967 62.59 650.427 62.45C649.887 62.29 649.317 62.12 648.717 61.94C648.117 61.76 647.547 61.51 647.007 61.19C646.467 60.87 646.027 60.43 645.687 59.87C645.347 59.29 645.177 58.56 645.177 57.68C645.177 56.74 645.417 55.93 645.897 55.25C646.377 54.55 647.057 54 647.937 53.6C648.817 53.2 649.847 53 651.027 53C652.267 53 653.407 53.22 654.447 53.66C655.507 54.08 656.367 54.71 657.027 55.55L654.417 58.19C653.957 57.65 653.437 57.27 652.857 57.05C652.297 56.83 651.747 56.72 651.207 56.72C650.687 56.72 650.297 56.8 650.037 56.96C649.777 57.1 649.647 57.31 649.647 57.59C649.647 57.89 649.817 58.13 650.157 58.31C650.497 58.49 650.937 58.65 651.477 58.79C652.017 58.93 652.587 59.1 653.187 59.3C653.787 59.5 654.357 59.77 654.897 60.11C655.437 60.45 655.877 60.91 656.217 61.49C656.557 62.05 656.727 62.79 656.727 63.71C656.727 65.13 656.187 66.26 655.107 67.1C654.047 67.94 652.607 68.36 650.787 68.36Z" fill="black"/>
<g filter="url(#filter0_d_0_1)">
<path d="M195.293 306.852C195.764 306.563 195.911 305.947 195.622 305.477L190.911 297.808C190.621 297.338 190.006 297.191 189.535 297.48C189.064 297.769 188.917 298.385 189.206 298.855L193.394 305.671L186.578 309.859C186.107 310.148 185.96 310.764 186.249 311.235C186.539 311.705 187.154 311.852 187.625 311.563L195.293 306.852ZM164.77 272.977C164.525 283.856 166.322 291.128 171.171 296.316C175.975 301.455 183.616 304.364 194.537 306.973L195.002 305.027C184.094 302.422 176.992 299.615 172.632 294.95C168.316 290.333 166.529 283.712 166.77 273.023L164.77 272.977Z" fill="black"/>
</g>
<g filter="url(#filter1_d_0_1)">
<path d="M511.476 306.851C511.006 306.562 510.859 305.946 511.148 305.476L515.86 297.808C516.149 297.337 516.764 297.19 517.235 297.479C517.706 297.768 517.853 298.384 517.564 298.855L513.376 305.671L520.192 309.859C520.662 310.148 520.809 310.764 520.52 311.234C520.231 311.705 519.615 311.852 519.145 311.563L511.476 306.851ZM542.001 272.977C542.245 283.856 540.448 291.128 535.599 296.315C530.795 301.455 523.154 304.363 512.232 306.972L511.768 305.027C522.676 302.421 529.778 299.614 534.138 294.95C538.454 290.333 540.242 283.712 540.001 273.023L542.001 272.977Z" fill="black"/>
</g>
<defs>
<filter id="filter0_d_0_1" x="160.748" y="272.977" width="39.0217" height="46.734" filterUnits="userSpaceOnUse" color-interpolation-filters="sRGB">
<feFlood flood-opacity="0" result="BackgroundImageFix"/>
<feColorMatrix in="SourceAlpha" type="matrix" values="0 0 0 0 0 0 0 0 0 0 0 0 0 0 0 0 0 0 127 0" result="hardAlpha"/>
<feOffset dy="4"/>
<feGaussianBlur stdDeviation="2"/>
<feComposite in2="hardAlpha" operator="out"/>
<feColorMatrix type="matrix" values="0 0 0 0 0 0 0 0 0 0 0 0 0 0 0 0 0 0 0.25 0"/>
<feBlend mode="normal" in2="BackgroundImageFix" result="effect1_dropShadow_0_1"/>
<feBlend mode="normal" in="SourceGraphic" in2="effect1_dropShadow_0_1" result="shape"/>
</filter>
<filter id="filter1_d_0_1" x="507" y="272.977" width="39.0225" height="46.7335" filterUnits="userSpaceOnUse" color-interpolation-filters="sRGB">
<feFlood flood-opacity="0" result="BackgroundImageFix"/>
<feColorMatrix in="SourceAlpha" type="matrix" values="0 0 0 0 0 0 0 0 0 0 0 0 0 0 0 0 0 0 127 0" result="hardAlpha"/>
<feOffset dy="4"/>
<feGaussianBlur stdDeviation="2"/>
<feComposite in2="hardAlpha" operator="out"/>
<feColorMatrix type="matrix" values="0 0 0 0 0 0 0 0 0 0 0 0 0 0 0 0 0 0 0.25 0"/>
<feBlend mode="normal" in2="BackgroundImageFix" result="effect1_dropShadow_0_1"/>
<feBlend mode="normal" in="SourceGraphic" in2="effect1_dropShadow_0_1" result="shape"/>
</filter>
<linearGradient id="paint0_linear_0_1" x1="311" y1="383" x2="311" y2="409" gradientUnits="userSpaceOnUse">
<stop stop-color="#3100A2"/>
<stop offset="1" stop-color="#B266FF"/>
</linearGradient>
<linearGradient id="paint1_linear_0_1" x1="400" y1="383" x2="400" y2="409" gradientUnits="userSpaceOnUse">
<stop stop-color="#3100A2"/>
<stop offset="1" stop-color="#B266FF"/>
</linearGradient>
</defs>
</svg>
